<svg width="111" height="31" viewBox="0 0 111 31" fill="none" xmlns="http://www.w3.org/2000/svg">
<path d="M5.23206 14.064C5.13606 14.064 5.05073 14.0427 4.97606 14C4.9014 13.9573 4.86406 13.904 4.86406 13.84C4.86406 13.6907 4.9974 13.5893 5.26406 13.536C5.64806 13.4507 5.90406 13.3333 6.03206 13.184C6.16006 13.0347 6.22406 12.784 6.22406 12.432V5.184C6.22406 4.832 6.17073 4.58133 6.06406 4.432C5.9574 4.28267 5.70673 4.16533 5.31206 4.08C5.0454 4.02667 4.91206 3.92 4.91206 3.76C4.91206 3.68533 4.94406 3.632 5.00806 3.6C5.08273 3.55733 5.1734 3.536 5.28006 3.536C5.53606 3.536 5.77606 3.54133 6.00006 3.552C6.22406 3.56267 6.44273 3.57333 6.65606 3.584C6.8694 3.59467 7.08273 3.6 7.29606 3.6C7.5094 3.6 7.72806 3.59467 7.95206 3.584C8.18673 3.57333 8.42673 3.56267 8.67206 3.552C8.9174 3.54133 9.16273 3.536 9.40806 3.536C9.64273 3.536 9.76006 3.616 9.76006 3.776C9.76006 3.86133 9.72806 3.92533 9.66406 3.968C9.60006 4.01067 9.49873 4.048 9.36006 4.08C8.94406 4.18667 8.6614 4.32 8.51206 4.48C8.3734 4.64 8.30406 4.88 8.30406 5.2V8.176C8.30406 8.25067 8.3254 8.304 8.36806 8.336C8.4214 8.35733 8.48006 8.368 8.54406 8.368H13.3281C13.4454 8.368 13.5041 8.29333 13.5041 8.144V5.184C13.5041 4.87467 13.4347 4.64 13.2961 4.48C13.1574 4.32 12.8801 4.18667 12.4641 4.08C12.3254 4.048 12.2187 4.01067 12.1441 3.968C12.0801 3.92533 12.0481 3.86133 12.0481 3.776C12.0481 3.616 12.1654 3.536 12.4001 3.536C12.6561 3.536 12.9121 3.54133 13.1681 3.552C13.4241 3.56267 13.6694 3.57333 13.9041 3.584C14.1494 3.59467 14.3841 3.6 14.6081 3.6C14.8107 3.6 15.0081 3.59467 15.2001 3.584C15.3921 3.57333 15.5947 3.56267 15.8081 3.552C16.0321 3.54133 16.2721 3.536 16.5281 3.536C16.6241 3.536 16.7094 3.55733 16.7841 3.6C16.8587 3.632 16.8961 3.68533 16.8961 3.76C16.8961 3.92 16.7574 4.02667 16.4801 4.08C16.1067 4.16533 15.8614 4.288 15.7441 4.448C15.6374 4.608 15.5841 4.85333 15.5841 5.184V12.432C15.5841 12.784 15.6427 13.0347 15.7601 13.184C15.8774 13.3333 16.1281 13.4507 16.5121 13.536C16.7787 13.5893 16.9121 13.6907 16.9121 13.84C16.9121 13.904 16.8747 13.9573 16.8001 14C16.7254 14.0427 16.6401 14.064 16.5441 14.064C16.2987 14.064 16.0641 14.0533 15.8401 14.032C15.6161 14.0213 15.3921 14.0107 15.1681 14C14.9547 13.9893 14.7414 13.984 14.5281 13.984C14.3147 13.984 14.0907 13.9893 13.8561 14C13.6214 14.0107 13.3814 14.0213 13.1361 14.032C12.8907 14.0427 12.6401 14.048 12.3841 14.048C12.2881 14.048 12.2081 14.032 12.1441 14C12.0801 13.9573 12.0481 13.8987 12.0481 13.824C12.0481 13.7387 12.0801 13.68 12.1441 13.648C12.2081 13.6053 12.3041 13.568 12.4321 13.536C12.8161 13.44 13.0881 13.312 13.2481 13.152C13.4187 12.992 13.5041 12.752 13.5041 12.432V9.392C13.5041 9.328 13.4934 9.26933 13.4721 9.216C13.4614 9.16267 13.4187 9.136 13.3441 9.136H8.48006C8.36273 9.136 8.30406 9.216 8.30406 9.376V12.368C8.30406 12.688 8.39473 12.9387 8.57606 13.12C8.76806 13.3013 9.05606 13.44 9.44006 13.536C9.57873 13.568 9.68006 13.6053 9.74406 13.648C9.80806 13.68 9.84006 13.7387 9.84006 13.824C9.84006 13.8987 9.80806 13.9573 9.74406 14C9.69073 14.032 9.6054 14.048 9.48806 14.048C9.24273 14.048 8.99206 14.0427 8.73606 14.032C8.48006 14.0213 8.2294 14.0107 7.98406 14C7.7494 13.9893 7.52006 13.984 7.29606 13.984C7.07206 13.984 6.84806 13.9893 6.62406 14C6.40006 14.0107 6.17073 14.0213 5.93606 14.032C5.7014 14.0533 5.46673 14.064 5.23206 14.064ZM24.1394 14.224C23.4141 14.224 22.7208 14.1013 22.0594 13.856C21.3981 13.6 20.8114 13.2427 20.2994 12.784C19.7981 12.3147 19.3981 11.76 19.0994 11.12C18.8114 10.4693 18.6674 9.74933 18.6674 8.96C18.6674 8.23467 18.7848 7.54133 19.0194 6.88C19.2648 6.208 19.6221 5.61067 20.0914 5.088C20.5714 4.56533 21.1581 4.14933 21.8514 3.84C22.5554 3.53067 23.3661 3.376 24.2834 3.376C25.0088 3.376 25.6968 3.504 26.3474 3.76C27.0088 4.00533 27.5954 4.36267 28.1074 4.832C28.6194 5.29067 29.0194 5.84533 29.3074 6.496C29.6061 7.136 29.7554 7.85067 29.7554 8.64C29.7554 9.35467 29.6328 10.048 29.3874 10.72C29.1528 11.392 28.7954 11.9893 28.3154 12.512C27.8461 13.0347 27.2594 13.4507 26.5554 13.76C25.8621 14.0693 25.0568 14.224 24.1394 14.224ZM24.4114 13.52C25.0834 13.52 25.6434 13.3493 26.0914 13.008C26.5501 12.6667 26.8914 12.192 27.1154 11.584C27.3501 10.9653 27.4674 10.256 27.4674 9.456C27.4674 8.77333 27.3981 8.112 27.2594 7.472C27.1208 6.832 26.9074 6.26133 26.6194 5.76C26.3314 5.248 25.9688 4.84267 25.5314 4.544C25.1048 4.24533 24.5928 4.096 23.9954 4.096C23.3234 4.096 22.7581 4.26667 22.2994 4.608C21.8514 4.94933 21.5154 5.424 21.2914 6.032C21.0674 6.64 20.9554 7.344 20.9554 8.144C20.9554 8.82667 21.0248 9.488 21.1634 10.128C21.3021 10.768 21.5101 11.344 21.7874 11.856C22.0754 12.368 22.4328 12.7733 22.8594 13.072C23.2968 13.3707 23.8141 13.52 24.4114 13.52ZM41.9113 14.288C41.7833 14.288 41.57 14.208 41.2713 14.048C40.9726 13.888 40.6686 13.6107 40.3593 13.216C40.178 13.0133 39.954 12.768 39.6873 12.48C39.4313 12.1813 39.1433 11.856 38.8233 11.504C38.514 11.152 38.1886 10.784 37.8473 10.4C37.506 10.016 37.1646 9.632 36.8233 9.248C36.4926 8.864 36.1673 8.496 35.8473 8.144C35.5273 7.792 35.234 7.472 34.9673 7.184C34.7006 6.88533 34.4766 6.62933 34.2953 6.416C34.2526 6.36267 34.2046 6.32 34.1513 6.288C34.1086 6.24533 34.0713 6.224 34.0393 6.224C33.9966 6.224 33.9646 6.26133 33.9433 6.336C33.922 6.41067 33.9113 6.48 33.9113 6.544C33.9113 7.03467 33.9113 7.616 33.9113 8.288C33.922 8.96 33.9273 9.64267 33.9273 10.336C33.9273 11.0293 33.9273 11.6693 33.9273 12.256C33.9273 12.5867 34.0233 12.8587 34.2153 13.072C34.4073 13.2853 34.7113 13.44 35.1273 13.536C35.2553 13.5573 35.362 13.5947 35.4473 13.648C35.5433 13.6907 35.5913 13.7547 35.5913 13.84C35.5913 13.9147 35.5486 13.968 35.4633 14C35.378 14.032 35.282 14.048 35.1753 14.048C34.8873 14.048 34.658 14.0427 34.4873 14.032C34.3166 14.0213 34.162 14.0107 34.0233 14C33.8846 13.9893 33.7086 13.984 33.4953 13.984C33.2713 13.984 33.0686 13.9893 32.8873 14C32.7166 14.0107 32.562 14.0213 32.4233 14.032C32.2846 14.0533 32.1513 14.064 32.0233 14.064C31.9166 14.064 31.8206 14.0427 31.7353 14C31.65 13.968 31.6073 13.92 31.6073 13.856C31.6073 13.7707 31.6446 13.7067 31.7193 13.664C31.8046 13.6107 31.9166 13.5627 32.0553 13.52C32.3326 13.4347 32.5353 13.28 32.6633 13.056C32.802 12.8213 32.8873 12.544 32.9193 12.224C32.962 11.8187 33.0046 11.2907 33.0473 10.64C33.09 9.97867 33.1273 9.23733 33.1593 8.416C33.202 7.59467 33.2233 6.74667 33.2233 5.872C33.2233 5.31733 33.0793 4.91733 32.7913 4.672C32.514 4.42667 32.162 4.22933 31.7353 4.08C31.6606 4.05867 31.5646 4.016 31.4473 3.952C31.33 3.888 31.2713 3.808 31.2713 3.712C31.2713 3.616 31.314 3.552 31.3993 3.52C31.4846 3.488 31.5753 3.472 31.6713 3.472C31.8953 3.472 32.1193 3.47733 32.3433 3.488C32.5673 3.49867 32.7913 3.50933 33.0153 3.52C33.25 3.52 33.49 3.52533 33.7353 3.536C33.9913 3.54667 34.2633 3.552 34.5513 3.552C34.6473 3.552 34.7166 3.57333 34.7593 3.616C34.8126 3.648 34.8606 3.696 34.9033 3.76C35.074 3.96267 35.2926 4.21867 35.5593 4.528C35.826 4.82667 36.114 5.16267 36.4233 5.536C36.7433 5.89867 37.074 6.28267 37.4153 6.688C37.7673 7.09333 38.114 7.49867 38.4553 7.904C38.8073 8.30933 39.1433 8.69867 39.4633 9.072C39.7833 9.43467 40.0713 9.77067 40.3273 10.08C40.594 10.3787 40.8126 10.624 40.9833 10.816C41.026 10.8587 41.074 10.912 41.1273 10.976C41.1913 11.04 41.2446 11.072 41.2873 11.072C41.3726 11.072 41.4206 10.9813 41.4313 10.8C41.4313 10.5227 41.4313 10.1707 41.4313 9.744C41.4313 9.30667 41.4313 8.82667 41.4313 8.304C41.442 7.77067 41.442 7.22667 41.4313 6.672C41.4313 6.11733 41.426 5.584 41.4153 5.072C41.4046 4.80533 41.2926 4.59733 41.0793 4.448C40.8766 4.288 40.6206 4.176 40.3113 4.112C40.1833 4.08 40.0606 4.04267 39.9433 4C39.8366 3.94667 39.7833 3.872 39.7833 3.776C39.7833 3.70133 39.8366 3.648 39.9433 3.616C40.0606 3.584 40.1673 3.568 40.2633 3.568C40.4766 3.568 40.6526 3.568 40.7913 3.568C40.9406 3.568 41.0793 3.57333 41.2073 3.584C41.3353 3.584 41.4686 3.584 41.6073 3.584C41.842 3.584 42.034 3.584 42.1833 3.584C42.3326 3.57333 42.4926 3.56267 42.6633 3.552C42.8446 3.54133 43.0793 3.536 43.3673 3.536C43.4953 3.536 43.5966 3.55733 43.6713 3.6C43.7566 3.632 43.7993 3.68 43.7993 3.744C43.7993 3.904 43.6446 4.016 43.3353 4.08C42.962 4.15467 42.6953 4.256 42.5353 4.384C42.386 4.512 42.306 4.72533 42.2953 5.024C42.2953 5.29067 42.29 5.632 42.2793 6.048C42.2793 6.464 42.274 6.91733 42.2633 7.408C42.2526 7.89867 42.2366 8.4 42.2153 8.912C42.2046 9.424 42.194 9.92533 42.1833 10.416C42.1833 10.9067 42.1833 11.3493 42.1833 11.744C42.1833 12 42.194 12.2613 42.2153 12.528C42.2366 12.7947 42.258 13.0347 42.2793 13.248C42.3113 13.4507 42.3273 13.5947 42.3273 13.68C42.3273 13.9147 42.29 14.0747 42.2153 14.16C42.1406 14.2453 42.0393 14.288 41.9113 14.288ZM50.7707 14.224C50.0454 14.224 49.352 14.1013 48.6907 13.856C48.0294 13.6 47.4427 13.2427 46.9307 12.784C46.4294 12.3147 46.0294 11.76 45.7307 11.12C45.4427 10.4693 45.2987 9.74933 45.2987 8.96C45.2987 8.23467 45.416 7.54133 45.6507 6.88C45.896 6.208 46.2534 5.61067 46.7227 5.088C47.2027 4.56533 47.7894 4.14933 48.4827 3.84C49.1867 3.53067 49.9974 3.376 50.9147 3.376C51.64 3.376 52.328 3.504 52.9787 3.76C53.64 4.00533 54.2267 4.36267 54.7387 4.832C55.2507 5.29067 55.6507 5.84533 55.9387 6.496C56.2374 7.136 56.3867 7.85067 56.3867 8.64C56.3867 9.35467 56.264 10.048 56.0187 10.72C55.784 11.392 55.4267 11.9893 54.9467 12.512C54.4774 13.0347 53.8907 13.4507 53.1867 13.76C52.4934 14.0693 51.688 14.224 50.7707 14.224ZM51.0427 13.52C51.7147 13.52 52.2747 13.3493 52.7227 13.008C53.1814 12.6667 53.5227 12.192 53.7467 11.584C53.9814 10.9653 54.0987 10.256 54.0987 9.456C54.0987 8.77333 54.0294 8.112 53.8907 7.472C53.752 6.832 53.5387 6.26133 53.2507 5.76C52.9627 5.248 52.6 4.84267 52.1627 4.544C51.736 4.24533 51.224 4.096 50.6267 4.096C49.9547 4.096 49.3894 4.26667 48.9307 4.608C48.4827 4.94933 48.1467 5.424 47.9227 6.032C47.6987 6.64 47.5867 7.344 47.5867 8.144C47.5867 8.82667 47.656 9.488 47.7947 10.128C47.9334 10.768 48.1414 11.344 48.4187 11.856C48.7067 12.368 49.064 12.7733 49.4907 13.072C49.928 13.3707 50.4454 13.52 51.0427 13.52ZM67.9986 14.336C67.5399 14.336 67.1399 14.2827 66.7986 14.176C66.4572 14.08 66.1639 13.936 65.9186 13.744C65.6732 13.552 65.4492 13.328 65.2466 13.072C65.0119 12.752 64.7826 12.4427 64.5586 12.144C64.3346 11.8347 64.1052 11.4987 63.8706 11.136C63.6466 10.7627 63.3959 10.32 63.1186 9.808C62.9799 9.56267 62.8039 9.38133 62.5906 9.264C62.4519 9.18933 62.3079 9.136 62.1586 9.104C62.0199 9.072 61.9026 9.056 61.8066 9.056C61.7426 9.04533 61.6946 9.072 61.6626 9.136C61.6306 9.2 61.6146 9.28 61.6146 9.376V12.352C61.6146 12.6827 61.6999 12.9387 61.8706 13.12C62.0519 13.3013 62.3559 13.44 62.7826 13.536C62.9212 13.5573 63.0226 13.5947 63.0866 13.648C63.1506 13.6907 63.1826 13.7547 63.1826 13.84C63.1826 13.9147 63.1506 13.968 63.0866 14C63.0332 14.032 62.9479 14.048 62.8306 14.048C62.5852 14.048 62.3346 14.0373 62.0786 14.016C61.8226 14.0053 61.5719 13.9947 61.3266 13.984C61.0919 13.9733 60.8679 13.968 60.6546 13.968C60.4199 13.968 60.1746 13.9733 59.9186 13.984C59.6732 13.9947 59.4226 14.0107 59.1666 14.032C58.9106 14.0533 58.6546 14.064 58.3986 14.064C58.3026 14.064 58.2172 14.0427 58.1426 14C58.0679 13.968 58.0306 13.92 58.0306 13.856C58.0306 13.696 58.1639 13.5893 58.4306 13.536C58.8359 13.4507 59.1239 13.3333 59.2946 13.184C59.4652 13.0347 59.5506 12.784 59.5506 12.432V5.36C59.5506 5.05067 59.5239 4.816 59.4706 4.656C59.4279 4.48533 59.3372 4.35733 59.1986 4.272C59.0599 4.18667 58.8519 4.12267 58.5746 4.08C58.4252 4.05867 58.3186 4.016 58.2546 3.952C58.1906 3.888 58.1586 3.824 58.1586 3.76C58.1586 3.68533 58.1906 3.632 58.2546 3.6C58.3292 3.55733 58.4252 3.536 58.5426 3.536C58.8626 3.536 59.1186 3.54133 59.3106 3.552C59.5026 3.56267 59.6839 3.57867 59.8546 3.6C60.0359 3.61067 60.2492 3.616 60.4946 3.616C60.7292 3.616 60.9372 3.60533 61.1186 3.584C61.2999 3.56267 61.5026 3.54133 61.7266 3.52C61.9506 3.49867 62.2386 3.488 62.5906 3.488C63.8172 3.488 64.7559 3.70133 65.4066 4.128C66.0572 4.55467 66.3826 5.20533 66.3826 6.08C66.3826 6.56 66.2812 6.97067 66.0786 7.312C65.8759 7.64267 65.6199 7.91467 65.3106 8.128C65.0119 8.34133 64.7026 8.50667 64.3826 8.624C64.3399 8.63467 64.3186 8.66133 64.3186 8.704C64.3292 8.74667 64.3506 8.784 64.3826 8.816C64.7026 9.30667 65.0119 9.776 65.3106 10.224C65.6199 10.6613 65.9399 11.0773 66.2706 11.472C66.6119 11.8667 66.9799 12.2453 67.3746 12.608C67.7052 12.9173 68.0412 13.104 68.3826 13.168C68.7346 13.2213 69.0972 13.248 69.4706 13.248C69.6306 13.248 69.7106 13.328 69.7106 13.488C69.7106 13.7013 69.6306 13.872 69.4706 14C69.3106 14.1173 69.0972 14.2027 68.8306 14.256C68.5746 14.3093 68.2972 14.336 67.9986 14.336ZM62.3026 8.592C62.7399 8.592 63.1026 8.496 63.3906 8.304C63.6892 8.10133 63.9132 7.83467 64.0626 7.504C64.2226 7.17333 64.3026 6.80533 64.3026 6.4C64.3026 5.92 64.2439 5.51467 64.1266 5.184C64.0092 4.84267 63.8066 4.58133 63.5186 4.4C63.2412 4.208 62.8572 4.112 62.3666 4.112C62.0892 4.112 61.8972 4.21333 61.7906 4.416C61.6946 4.608 61.6412 5.00267 61.6306 5.6C61.6199 5.84533 61.6146 6.17067 61.6146 6.576C61.6146 6.97067 61.6146 7.44533 61.6146 8C61.6146 8.23467 61.6732 8.39467 61.7906 8.48C61.9186 8.55467 62.0892 8.592 62.3026 8.592ZM71.0728 14.064C70.9768 14.064 70.8915 14.0427 70.8168 14C70.7421 13.968 70.7048 13.92 70.7048 13.856C70.7048 13.696 70.8381 13.5893 71.1048 13.536C71.5101 13.4507 71.8035 13.3333 71.9848 13.184C72.1661 13.0347 72.2568 12.7893 72.2568 12.448V5.184C72.2568 4.832 72.1821 4.58133 72.0328 4.432C71.8835 4.28267 71.6008 4.16533 71.1848 4.08C70.9181 4.02667 70.7848 3.91467 70.7848 3.744C70.7848 3.68 70.8221 3.632 70.8968 3.6C70.9715 3.55733 71.0568 3.536 71.1528 3.536C71.4088 3.536 71.6595 3.54133 71.9048 3.552C72.1501 3.56267 72.3848 3.57333 72.6088 3.584C72.8435 3.59467 73.0781 3.6 73.3128 3.6C73.5368 3.6 73.7608 3.59467 73.9848 3.584C74.2195 3.57333 74.4595 3.56267 74.7048 3.552C74.9501 3.54133 75.2008 3.536 75.4568 3.536C75.5635 3.536 75.6488 3.55733 75.7128 3.6C75.7768 3.632 75.8088 3.68533 75.8088 3.76C75.8088 3.84533 75.7715 3.91467 75.6968 3.968C75.6328 4.01067 75.5368 4.048 75.4088 4.08C74.9821 4.18667 74.6941 4.31467 74.5448 4.464C74.3955 4.61333 74.3208 4.85867 74.3208 5.2V12.432C74.3208 12.7627 74.4061 13.0027 74.5768 13.152C74.7581 13.3013 75.0515 13.4293 75.4568 13.536C75.5955 13.568 75.6968 13.6053 75.7608 13.648C75.8355 13.6907 75.8728 13.7547 75.8728 13.84C75.8728 13.9147 75.8408 13.968 75.7768 14C75.7128 14.032 75.6275 14.048 75.5208 14.048C75.2648 14.048 75.0088 14.0427 74.7528 14.032C74.4968 14.0213 74.2461 14.0107 74.0008 14C73.7661 13.9893 73.5368 13.984 73.3128 13.984C73.0781 13.984 72.8381 13.9893 72.5928 14C72.3475 14.0107 72.0968 14.0213 71.8408 14.032C71.5848 14.0533 71.3288 14.064 71.0728 14.064ZM87.7519 14.288C87.6239 14.288 87.4106 14.208 87.1119 14.048C86.8133 13.888 86.5093 13.6107 86.1999 13.216C86.0186 13.0133 85.7946 12.768 85.5279 12.48C85.2719 12.1813 84.9839 11.856 84.6639 11.504C84.3546 11.152 84.0293 10.784 83.6879 10.4C83.3466 10.016 83.0053 9.632 82.6639 9.248C82.3333 8.864 82.0079 8.496 81.6879 8.144C81.3679 7.792 81.0746 7.472 80.8079 7.184C80.5413 6.88533 80.3173 6.62933 80.1359 6.416C80.0933 6.36267 80.0453 6.32 79.9919 6.288C79.9493 6.24533 79.9119 6.224 79.8799 6.224C79.8373 6.224 79.8053 6.26133 79.7839 6.336C79.7626 6.41067 79.7519 6.48 79.7519 6.544C79.7519 7.03467 79.7519 7.616 79.7519 8.288C79.7626 8.96 79.7679 9.64267 79.7679 10.336C79.7679 11.0293 79.7679 11.6693 79.7679 12.256C79.7679 12.5867 79.8639 12.8587 80.0559 13.072C80.2479 13.2853 80.5519 13.44 80.9679 13.536C81.0959 13.5573 81.2026 13.5947 81.2879 13.648C81.3839 13.6907 81.4319 13.7547 81.4319 13.84C81.4319 13.9147 81.3893 13.968 81.3039 14C81.2186 14.032 81.1226 14.048 81.0159 14.048C80.7279 14.048 80.4986 14.0427 80.3279 14.032C80.1573 14.0213 80.0026 14.0107 79.8639 14C79.7253 13.9893 79.5493 13.984 79.3359 13.984C79.1119 13.984 78.9093 13.9893 78.7279 14C78.5573 14.0107 78.4026 14.0213 78.2639 14.032C78.1253 14.0533 77.9919 14.064 77.8639 14.064C77.7573 14.064 77.6613 14.0427 77.5759 14C77.4906 13.968 77.4479 13.92 77.4479 13.856C77.4479 13.7707 77.4853 13.7067 77.5599 13.664C77.6453 13.6107 77.7573 13.5627 77.8959 13.52C78.1733 13.4347 78.3759 13.28 78.5039 13.056C78.6426 12.8213 78.7279 12.544 78.7599 12.224C78.8026 11.8187 78.8453 11.2907 78.8879 10.64C78.9306 9.97867 78.9679 9.23733 78.9999 8.416C79.0426 7.59467 79.0639 6.74667 79.0639 5.872C79.0639 5.31733 78.9199 4.91733 78.6319 4.672C78.3546 4.42667 78.0026 4.22933 77.5759 4.08C77.5013 4.05867 77.4053 4.016 77.2879 3.952C77.1706 3.888 77.1119 3.808 77.1119 3.712C77.1119 3.616 77.1546 3.552 77.2399 3.52C77.3253 3.488 77.4159 3.472 77.5119 3.472C77.7359 3.472 77.9599 3.47733 78.1839 3.488C78.4079 3.49867 78.6319 3.50933 78.8559 3.52C79.0906 3.52 79.3306 3.52533 79.5759 3.536C79.8319 3.54667 80.1039 3.552 80.3919 3.552C80.4879 3.552 80.5573 3.57333 80.5999 3.616C80.6533 3.648 80.7013 3.696 80.7439 3.76C80.9146 3.96267 81.1333 4.21867 81.3999 4.528C81.6666 4.82667 81.9546 5.16267 82.2639 5.536C82.5839 5.89867 82.9146 6.28267 83.2559 6.688C83.6079 7.09333 83.9546 7.49867 84.2959 7.904C84.6479 8.30933 84.9839 8.69867 85.3039 9.072C85.6239 9.43467 85.9119 9.77067 86.1679 10.08C86.4346 10.3787 86.6533 10.624 86.8239 10.816C86.8666 10.8587 86.9146 10.912 86.9679 10.976C87.0319 11.04 87.0853 11.072 87.1279 11.072C87.2133 11.072 87.2613 10.9813 87.2719 10.8C87.2719 10.5227 87.2719 10.1707 87.2719 9.744C87.2719 9.30667 87.2719 8.82667 87.2719 8.304C87.2826 7.77067 87.2826 7.22667 87.2719 6.672C87.2719 6.11733 87.2666 5.584 87.2559 5.072C87.2453 4.80533 87.1333 4.59733 86.9199 4.448C86.7173 4.288 86.4613 4.176 86.1519 4.112C86.0239 4.08 85.9013 4.04267 85.7839 4C85.6773 3.94667 85.6239 3.872 85.6239 3.776C85.6239 3.70133 85.6773 3.648 85.7839 3.616C85.9013 3.584 86.0079 3.568 86.1039 3.568C86.3173 3.568 86.4933 3.568 86.6319 3.568C86.7813 3.568 86.9199 3.57333 87.0479 3.584C87.1759 3.584 87.3093 3.584 87.4479 3.584C87.6826 3.584 87.8746 3.584 88.0239 3.584C88.1733 3.57333 88.3333 3.56267 88.5039 3.552C88.6853 3.54133 88.9199 3.536 89.2079 3.536C89.3359 3.536 89.4373 3.55733 89.5119 3.6C89.5973 3.632 89.6399 3.68 89.6399 3.744C89.6399 3.904 89.4853 4.016 89.1759 4.08C88.8026 4.15467 88.5359 4.256 88.3759 4.384C88.2266 4.512 88.1466 4.72533 88.1359 5.024C88.1359 5.29067 88.1306 5.632 88.1199 6.048C88.1199 6.464 88.1146 6.91733 88.1039 7.408C88.0933 7.89867 88.0773 8.4 88.0559 8.912C88.0453 9.424 88.0346 9.92533 88.0239 10.416C88.0239 10.9067 88.0239 11.3493 88.0239 11.744C88.0239 12 88.0346 12.2613 88.0559 12.528C88.0773 12.7947 88.0986 13.0347 88.1199 13.248C88.1519 13.4507 88.1679 13.5947 88.1679 13.68C88.1679 13.9147 88.1306 14.0747 88.0559 14.16C87.9813 14.2453 87.8799 14.288 87.7519 14.288ZM96.7233 14.224C95.966 14.224 95.2513 14.096 94.5793 13.84C93.9073 13.584 93.31 13.2267 92.7873 12.768C92.2753 12.2987 91.87 11.744 91.5713 11.104C91.2833 10.464 91.1393 9.76 91.1393 8.992C91.1393 8.23467 91.2833 7.52 91.5713 6.848C91.87 6.176 92.286 5.584 92.8193 5.072C93.3526 4.54933 93.982 4.13867 94.7073 3.84C95.4433 3.53067 96.254 3.376 97.1393 3.376C97.342 3.376 97.5926 3.39733 97.8913 3.44C98.19 3.472 98.4993 3.51467 98.8193 3.568C99.1393 3.62133 99.4326 3.68 99.6993 3.744C99.9766 3.808 100.19 3.872 100.339 3.936C100.414 3.968 100.473 4.01067 100.515 4.064C100.558 4.10667 100.585 4.17067 100.595 4.256C100.649 4.608 100.691 4.944 100.723 5.264C100.755 5.584 100.771 5.86133 100.771 6.096C100.771 6.18133 100.745 6.256 100.691 6.32C100.649 6.384 100.59 6.416 100.515 6.416C100.398 6.416 100.313 6.37867 100.259 6.304C100.206 6.21867 100.158 6.128 100.115 6.032C100.03 5.84 99.934 5.65333 99.8273 5.472C99.7206 5.28 99.5873 5.09867 99.4273 4.928C99.3206 4.82133 99.1713 4.70933 98.9793 4.592C98.798 4.464 98.5633 4.35733 98.2753 4.272C97.9873 4.18667 97.6353 4.144 97.2193 4.144C96.6326 4.144 96.1046 4.26667 95.6353 4.512C95.166 4.74667 94.7713 5.07733 94.4513 5.504C94.1313 5.93067 93.886 6.416 93.7153 6.96C93.5446 7.49333 93.4593 8.05333 93.4593 8.64C93.4593 9.376 93.5446 10.0427 93.7153 10.64C93.886 11.2267 94.126 11.7333 94.4353 12.16C94.7446 12.576 95.1126 12.896 95.5393 13.12C95.966 13.344 96.446 13.456 96.9793 13.456C97.3633 13.456 97.662 13.4027 97.8753 13.296C98.0993 13.1787 98.2593 13.0773 98.3553 12.992C98.4726 12.896 98.5686 12.752 98.6433 12.56C98.718 12.368 98.7606 12.144 98.7713 11.888C98.7713 11.792 98.7713 11.6693 98.7713 11.52C98.782 11.3707 98.7873 11.2213 98.7873 11.072C98.798 10.9227 98.8033 10.8 98.8033 10.704C98.8033 10.5867 98.782 10.4853 98.7393 10.4C98.7073 10.304 98.638 10.2293 98.5313 10.176C98.4353 10.1013 98.3126 10.0373 98.1633 9.984C98.014 9.92 97.8593 9.87733 97.6993 9.856C97.55 9.824 97.4273 9.80267 97.3313 9.792C97.2566 9.78133 97.1766 9.74933 97.0913 9.696C97.006 9.632 96.9633 9.55733 96.9633 9.472C96.9633 9.38667 97.0006 9.32267 97.0753 9.28C97.1606 9.23733 97.2353 9.216 97.2993 9.216C97.5446 9.216 97.7953 9.22133 98.0513 9.232C98.318 9.24267 98.5793 9.25333 98.8353 9.264C99.102 9.27467 99.358 9.28 99.6033 9.28C99.902 9.28 100.195 9.26933 100.483 9.248C100.782 9.22667 101.086 9.216 101.395 9.216C101.459 9.216 101.523 9.23733 101.587 9.28C101.662 9.312 101.699 9.376 101.699 9.472C101.699 9.55733 101.662 9.62667 101.587 9.68C101.513 9.73333 101.443 9.76533 101.379 9.776C101.091 9.85067 100.894 9.94667 100.787 10.064C100.691 10.1813 100.627 10.3467 100.595 10.56C100.553 10.7947 100.521 11.0027 100.499 11.184C100.489 11.3653 100.483 11.5573 100.483 11.76V12.256C100.483 12.3093 100.499 12.3573 100.531 12.4C100.574 12.4427 100.617 12.4907 100.659 12.544C100.702 12.5973 100.739 12.6507 100.771 12.704C100.814 12.7573 100.835 12.8107 100.835 12.864C100.835 12.928 100.814 12.9973 100.771 13.072C100.739 13.136 100.665 13.1787 100.547 13.2C100.473 13.2107 100.329 13.2693 100.115 13.376C99.902 13.4827 99.63 13.6053 99.2993 13.744C98.9793 13.872 98.6006 13.984 98.1633 14.08C97.7366 14.176 97.2566 14.224 96.7233 14.224ZM20.6171 28.065C20.5218 28.065 20.4481 28.0433 20.3961 28C20.3441 27.9653 20.3181 27.9263 20.3181 27.883C20.3181 27.8137 20.3485 27.7617 20.4091 27.727C20.4698 27.6837 20.5305 27.6533 20.5911 27.636C20.9031 27.558 21.1328 27.4627 21.2801 27.35C21.4275 27.2287 21.5011 27.0337 21.5011 26.765V20.785C21.5011 20.5857 21.4751 20.434 21.4231 20.33C21.3798 20.226 21.2975 20.148 21.1761 20.096C21.0635 20.0353 20.8945 19.9833 20.6691 19.94C20.4438 19.8967 20.3311 19.8057 20.3311 19.667C20.3311 19.615 20.3615 19.576 20.4221 19.55C20.4828 19.5153 20.5521 19.498 20.6301 19.498C20.8468 19.498 21.0505 19.5023 21.2411 19.511C21.4405 19.5197 21.6311 19.5283 21.8131 19.537C21.9951 19.5457 22.1771 19.55 22.3591 19.55C22.5585 19.55 22.7578 19.5457 22.9571 19.537C23.1651 19.5283 23.3731 19.5197 23.5811 19.511C23.7978 19.5023 24.0058 19.498 24.2051 19.498C24.2918 19.498 24.3611 19.5153 24.4131 19.55C24.4651 19.576 24.4911 19.6193 24.4911 19.68C24.4911 19.7493 24.4608 19.8057 24.4001 19.849C24.3481 19.8837 24.2701 19.914 24.1661 19.94C23.8281 20.0267 23.5768 20.122 23.4121 20.226C23.2561 20.3213 23.1781 20.4947 23.1781 20.746V26.687C23.1781 26.9383 23.2345 27.1247 23.3471 27.246C23.4598 27.3587 23.6721 27.415 23.9841 27.415H25.4011C25.6005 27.415 25.7825 27.3803 25.9471 27.311C26.1118 27.2417 26.2461 27.155 26.3501 27.051C26.5061 26.9123 26.6361 26.765 26.7401 26.609C26.8441 26.453 26.9438 26.271 27.0391 26.063C27.0998 25.933 27.1561 25.8333 27.2081 25.764C27.2601 25.6947 27.3121 25.66 27.3641 25.66C27.4248 25.66 27.4681 25.6903 27.4941 25.751C27.5201 25.803 27.5331 25.8593 27.5331 25.92C27.5331 25.9287 27.5288 25.9547 27.5201 25.998C27.5115 26.0413 27.5071 26.076 27.5071 26.102C27.4378 26.3533 27.3771 26.57 27.3251 26.752C27.2818 26.934 27.2428 27.1117 27.2081 27.285C27.1821 27.4497 27.1561 27.6317 27.1301 27.831C27.1215 27.8917 27.1041 27.948 27.0781 28C27.0521 28.0433 27.0001 28.065 26.9221 28.065C26.6621 28.065 26.3501 28.0607 25.9861 28.052C25.6221 28.0433 25.2365 28.0347 24.8291 28.026C24.4218 28.026 24.0101 28.0217 23.5941 28.013C23.1868 28.0043 22.8011 28 22.4371 28C22.2465 28 22.0255 28.0043 21.7741 28.013C21.5315 28.0217 21.3018 28.0303 21.0851 28.039C20.8685 28.0563 20.7125 28.065 20.6171 28.065ZM28.7936 28.052C28.7156 28.052 28.6463 28.0347 28.5856 28C28.525 27.974 28.4946 27.935 28.4946 27.883C28.4946 27.753 28.603 27.6663 28.8196 27.623C29.149 27.5537 29.3873 27.4583 29.5346 27.337C29.682 27.2157 29.7556 27.0163 29.7556 26.739V20.837C29.7556 20.551 29.695 20.3473 29.5736 20.226C29.4523 20.1047 29.2226 20.0093 28.8846 19.94C28.668 19.8967 28.5596 19.8057 28.5596 19.667C28.5596 19.615 28.59 19.576 28.6506 19.55C28.7113 19.5153 28.7806 19.498 28.8586 19.498C29.0666 19.498 29.2703 19.5023 29.4696 19.511C29.669 19.5197 29.8596 19.5283 30.0416 19.537C30.2323 19.5457 30.423 19.55 30.6136 19.55C30.7956 19.55 30.9776 19.5457 31.1596 19.537C31.3503 19.5283 31.5453 19.5197 31.7446 19.511C31.944 19.5023 32.1476 19.498 32.3556 19.498C32.4423 19.498 32.5116 19.5153 32.5636 19.55C32.6156 19.576 32.6416 19.6193 32.6416 19.68C32.6416 19.7493 32.6113 19.8057 32.5506 19.849C32.4986 19.8837 32.4206 19.914 32.3166 19.94C31.97 20.0267 31.736 20.1307 31.6146 20.252C31.4933 20.3733 31.4326 20.5727 31.4326 20.85V26.726C31.4326 26.9947 31.502 27.1897 31.6406 27.311C31.788 27.4323 32.0263 27.5363 32.3556 27.623C32.4683 27.649 32.5506 27.6793 32.6026 27.714C32.6633 27.7487 32.6936 27.8007 32.6936 27.87C32.6936 27.9307 32.6676 27.974 32.6156 28C32.5636 28.026 32.4943 28.039 32.4076 28.039C32.1996 28.039 31.9916 28.0347 31.7836 28.026C31.5756 28.0173 31.372 28.0087 31.1726 28C30.982 27.9913 30.7956 27.987 30.6136 27.987C30.423 27.987 30.228 27.9913 30.0286 28C29.8293 28.0087 29.6256 28.0173 29.4176 28.026C29.2096 28.0433 29.0016 28.052 28.7936 28.052ZM34.1424 28.052C34.0644 28.052 33.9951 28.0347 33.9344 28C33.8738 27.974 33.8434 27.935 33.8434 27.883C33.8434 27.753 33.9518 27.6663 34.1684 27.623C34.4978 27.5537 34.7231 27.4583 34.8444 27.337C34.9744 27.2157 35.0394 27.012 35.0394 26.726V21.006C35.0394 20.6767 34.9831 20.434 34.8704 20.278C34.7664 20.122 34.5584 20.0093 34.2464 19.94C34.1251 19.914 34.0384 19.8793 33.9864 19.836C33.9344 19.784 33.9084 19.732 33.9084 19.68C33.9084 19.6193 33.9344 19.576 33.9864 19.55C34.0471 19.5153 34.1251 19.498 34.2204 19.498C34.4631 19.498 34.6971 19.5023 34.9224 19.511C35.1478 19.5197 35.3688 19.5283 35.5854 19.537C35.8021 19.5457 36.0231 19.55 36.2484 19.55C36.5604 19.55 36.8984 19.55 37.2624 19.55C37.6351 19.55 37.9861 19.55 38.3154 19.55C38.6448 19.55 38.9394 19.5283 39.1994 19.485C39.4681 19.433 39.6934 19.407 39.8754 19.407C39.9274 19.407 39.9838 19.4243 40.0444 19.459C40.1138 19.485 40.1528 19.537 40.1614 19.615C40.1788 19.7797 40.1918 19.966 40.2004 20.174C40.2091 20.382 40.2134 20.5813 40.2134 20.772C40.2221 20.9627 40.2264 21.1143 40.2264 21.227C40.2264 21.4003 40.1788 21.487 40.0834 21.487C40.0401 21.487 39.9924 21.4697 39.9404 21.435C39.8971 21.4003 39.8668 21.3527 39.8494 21.292C39.7974 21.1013 39.7368 20.9323 39.6674 20.785C39.6068 20.629 39.5288 20.5077 39.4334 20.421C39.3208 20.291 39.1864 20.2 39.0304 20.148C38.8831 20.096 38.7098 20.07 38.5104 20.07H37.3274C37.1194 20.07 36.9634 20.1307 36.8594 20.252C36.7641 20.3647 36.7164 20.512 36.7164 20.694C36.7164 20.85 36.7164 21.0363 36.7164 21.253C36.7164 21.4697 36.7164 21.6733 36.7164 21.864C36.7164 22.0633 36.7164 22.2757 36.7164 22.501C36.7164 22.7263 36.7164 22.93 36.7164 23.112C36.7164 23.1987 36.7338 23.2723 36.7684 23.333C36.8118 23.385 36.8768 23.411 36.9634 23.411C37.1974 23.411 37.4314 23.4067 37.6654 23.398C37.9081 23.3893 38.1204 23.385 38.3024 23.385C38.5104 23.385 38.6708 23.3243 38.7834 23.203C38.9048 23.0817 39.0001 22.9343 39.0694 22.761C39.1041 22.7003 39.1431 22.6483 39.1864 22.605C39.2384 22.5617 39.2861 22.54 39.3294 22.54C39.3728 22.54 39.4118 22.5617 39.4464 22.605C39.4898 22.6483 39.5071 22.7133 39.4984 22.8C39.4811 22.9647 39.4638 23.1207 39.4464 23.268C39.4378 23.4067 39.4334 23.5367 39.4334 23.658C39.4334 23.814 39.4378 23.9527 39.4464 24.074C39.4551 24.1953 39.4681 24.3557 39.4854 24.555C39.4941 24.6503 39.4854 24.724 39.4594 24.776C39.4421 24.828 39.4074 24.854 39.3554 24.854C39.2861 24.854 39.2211 24.8193 39.1604 24.75C39.1084 24.6807 39.0738 24.6113 39.0564 24.542C38.9871 24.308 38.8961 24.1477 38.7834 24.061C38.6794 23.9743 38.5581 23.931 38.4194 23.931C38.3154 23.931 38.2071 23.931 38.0944 23.931C37.9904 23.9223 37.8908 23.918 37.7954 23.918C37.6654 23.918 37.5311 23.918 37.3924 23.918C37.2624 23.918 37.1324 23.9223 37.0024 23.931C36.9071 23.9397 36.8334 23.97 36.7814 24.022C36.7294 24.0653 36.7034 24.139 36.7034 24.243C36.7034 24.6417 36.7034 25.049 36.7034 25.465C36.7121 25.881 36.7208 26.297 36.7294 26.713C36.7381 26.9817 36.8118 27.181 36.9504 27.311C37.0891 27.441 37.3318 27.545 37.6784 27.623C37.7911 27.6403 37.8734 27.6707 37.9254 27.714C37.9774 27.7487 38.0034 27.8007 38.0034 27.87C38.0034 27.9307 37.9774 27.974 37.9254 28C37.8821 28.026 37.8128 28.039 37.7174 28.039C37.5181 28.039 37.3101 28.0303 37.0934 28.013C36.8854 28.0043 36.6818 27.9957 36.4824 27.987C36.2918 27.9783 36.1141 27.974 35.9494 27.974C35.7588 27.974 35.5638 27.9783 35.3644 27.987C35.1651 27.9957 34.9614 28.0087 34.7534 28.026C34.5541 28.0433 34.3504 28.052 34.1424 28.052ZM41.8015 28.065C41.7061 28.065 41.6281 28.0477 41.5675 28.013C41.5155 27.9783 41.4895 27.935 41.4895 27.883C41.4895 27.7703 41.6021 27.688 41.8275 27.636C42.1395 27.558 42.3605 27.4627 42.4905 27.35C42.6291 27.2287 42.6985 27.025 42.6985 26.739V20.85C42.6985 20.5553 42.6378 20.3473 42.5165 20.226C42.4038 20.1047 42.1871 20.0093 41.8665 19.94C41.7451 19.914 41.6585 19.8793 41.6065 19.836C41.5545 19.784 41.5285 19.732 41.5285 19.68C41.5285 19.6193 41.5545 19.576 41.6065 19.55C41.6671 19.5153 41.7451 19.498 41.8405 19.498C42.0918 19.498 42.3301 19.5023 42.5555 19.511C42.7895 19.5197 43.0148 19.5283 43.2315 19.537C43.4481 19.5457 43.6735 19.55 43.9075 19.55C44.3061 19.55 44.7265 19.5457 45.1685 19.537C45.6191 19.5283 46.0221 19.524 46.3775 19.524C46.6635 19.5153 46.8975 19.5023 47.0795 19.485C47.2701 19.4677 47.3828 19.459 47.4175 19.459C47.4781 19.459 47.5388 19.472 47.5995 19.498C47.6688 19.524 47.7078 19.576 47.7165 19.654C47.7511 19.94 47.7945 20.2217 47.8465 20.499C47.8985 20.7763 47.9245 21.019 47.9245 21.227C47.9245 21.305 47.9028 21.3657 47.8595 21.409C47.8248 21.4437 47.7858 21.461 47.7425 21.461C47.6991 21.461 47.6601 21.448 47.6255 21.422C47.5908 21.3873 47.5605 21.3397 47.5345 21.279C47.4651 21.0797 47.4001 20.9063 47.3395 20.759C47.2788 20.6117 47.2095 20.499 47.1315 20.421C47.0188 20.2997 46.8888 20.2043 46.7415 20.135C46.5941 20.0657 46.4165 20.031 46.2085 20.031H44.9995C44.8435 20.031 44.7005 20.0787 44.5705 20.174C44.4405 20.2607 44.3755 20.3863 44.3755 20.551V23.099C44.3755 23.1943 44.4015 23.268 44.4535 23.32C44.5141 23.372 44.5835 23.398 44.6615 23.398H45.8575C46.0915 23.398 46.2561 23.333 46.3515 23.203C46.4555 23.073 46.5421 22.8953 46.6115 22.67C46.6721 22.4967 46.7545 22.41 46.8585 22.41C46.9018 22.41 46.9408 22.436 46.9755 22.488C47.0101 22.5313 47.0275 22.592 47.0275 22.67C47.0188 22.7567 47.0101 22.8607 47.0015 22.982C46.9928 23.1033 46.9841 23.2247 46.9755 23.346C46.9755 23.4673 46.9755 23.5757 46.9755 23.671C46.9755 23.775 46.9755 23.892 46.9755 24.022C46.9841 24.152 46.9885 24.282 46.9885 24.412C46.9971 24.5333 47.0058 24.6373 47.0145 24.724C47.0231 24.8193 47.0145 24.893 46.9885 24.945C46.9711 24.997 46.9365 25.023 46.8845 25.023C46.7458 25.023 46.6461 24.9017 46.5855 24.659C46.5161 24.4163 46.4338 24.2343 46.3385 24.113C46.2431 23.9917 46.1131 23.931 45.9485 23.931H44.7265C44.6138 23.931 44.5271 23.9527 44.4665 23.996C44.4058 24.0393 44.3755 24.1217 44.3755 24.243V26.713C44.3755 26.999 44.4361 27.1983 44.5575 27.311C44.6788 27.4237 44.8651 27.48 45.1165 27.48H46.1825C46.3991 27.48 46.5941 27.4583 46.7675 27.415C46.9495 27.3717 47.1055 27.3023 47.2355 27.207C47.3828 27.103 47.5128 26.9643 47.6255 26.791C47.7468 26.609 47.8638 26.4097 47.9765 26.193C48.0111 26.1237 48.0458 26.0803 48.0805 26.063C48.1151 26.037 48.1585 26.024 48.2105 26.024C48.2538 26.0327 48.2841 26.0587 48.3015 26.102C48.3275 26.1453 48.3405 26.193 48.3405 26.245C48.3405 26.3663 48.3188 26.5223 48.2755 26.713C48.2321 26.9037 48.1758 27.103 48.1065 27.311C48.0458 27.5103 47.9895 27.6967 47.9375 27.87C47.9115 27.9307 47.8768 27.974 47.8335 28C47.7901 28.0347 47.7381 28.052 47.6775 28.052C47.4695 28.052 47.2008 28.0477 46.8715 28.039C46.5508 28.039 46.1998 28.0347 45.8185 28.026C45.4371 28.0173 45.0471 28.0087 44.6485 28C44.2498 28 43.8685 28 43.5045 28C43.3225 28 43.1361 28.0043 42.9455 28.013C42.7635 28.0217 42.5771 28.0303 42.3865 28.039C42.1958 28.0563 42.0008 28.065 41.8015 28.065ZM51.9582 28.052C51.8715 28.052 51.7935 28.0347 51.7242 28C51.6635 27.974 51.6332 27.935 51.6332 27.883C51.6332 27.8137 51.6635 27.7573 51.7242 27.714C51.7849 27.6707 51.8715 27.6403 51.9842 27.623C52.3135 27.5537 52.5562 27.4583 52.7122 27.337C52.8682 27.207 52.9462 26.999 52.9462 26.713V21.448C52.9462 21.0927 52.9375 20.824 52.9202 20.642C52.9029 20.46 52.8769 20.3387 52.8422 20.278C52.8162 20.2087 52.7729 20.1697 52.7122 20.161C52.6255 20.1263 52.5172 20.1047 52.3872 20.096C52.2572 20.0873 52.1315 20.083 52.0102 20.083H51.6072C51.3559 20.083 51.1132 20.1437 50.8792 20.265C50.6452 20.3777 50.4632 20.5337 50.3332 20.733C50.2985 20.785 50.2422 20.8587 50.1642 20.954C50.0949 21.0493 50.0169 21.136 49.9302 21.214C49.8522 21.292 49.7699 21.331 49.6832 21.331C49.6225 21.331 49.5792 21.3093 49.5532 21.266C49.5359 21.2227 49.5272 21.175 49.5272 21.123C49.5272 21.019 49.5532 20.915 49.6052 20.811C49.7525 20.5163 49.8609 20.2607 49.9302 20.044C50.0082 19.8187 50.0602 19.5543 50.0862 19.251C50.1035 19.121 50.1382 19.0387 50.1902 19.004C50.2509 18.9607 50.3115 18.939 50.3722 18.939C50.4242 18.939 50.4849 18.9953 50.5542 19.108C50.6322 19.212 50.7015 19.2987 50.7622 19.368C50.8402 19.446 50.9789 19.5067 51.1782 19.55C51.3775 19.5847 51.5465 19.602 51.6852 19.602L56.4822 19.589C56.7249 19.589 56.9285 19.5717 57.0932 19.537C57.2579 19.4937 57.3879 19.4503 57.4832 19.407C57.6132 19.329 57.7172 19.251 57.7952 19.173C57.8732 19.0863 57.9642 19.043 58.0682 19.043C58.1115 19.043 58.1419 19.069 58.1592 19.121C58.1852 19.1643 58.1982 19.2207 58.1982 19.29C58.1982 19.3333 58.1939 19.3853 58.1852 19.446C58.1765 19.498 58.1679 19.5457 58.1592 19.589C58.1245 19.7537 58.0899 19.901 58.0552 20.031C58.0205 20.1523 57.9902 20.2693 57.9642 20.382C57.9469 20.486 57.9382 20.6073 57.9382 20.746V20.967C57.9382 21.0883 57.9209 21.1923 57.8862 21.279C57.8515 21.3657 57.7952 21.409 57.7172 21.409C57.6479 21.409 57.5872 21.37 57.5352 21.292C57.4919 21.2053 57.4442 21.0753 57.3922 20.902C57.3142 20.6247 57.1842 20.421 57.0022 20.291C56.8202 20.1523 56.5342 20.083 56.1442 20.083H55.2602C55.0955 20.083 54.9655 20.1133 54.8702 20.174C54.7835 20.2347 54.7185 20.369 54.6752 20.577C54.6405 20.7763 54.6232 21.0883 54.6232 21.513V26.7C54.6232 26.9773 54.7012 27.181 54.8572 27.311C55.0132 27.4323 55.2602 27.5363 55.5982 27.623C55.7022 27.649 55.7845 27.6793 55.8452 27.714C55.9059 27.7487 55.9362 27.8007 55.9362 27.87C55.9362 27.9307 55.9059 27.974 55.8452 28C55.7932 28.026 55.7239 28.039 55.6372 28.039C55.4292 28.039 55.2212 28.0347 55.0132 28.026C54.8052 28.0173 54.5972 28.0087 54.3892 28C54.1899 27.9913 53.9949 27.987 53.8042 27.987C53.6135 27.987 53.4142 27.9913 53.2062 28C53.0069 28.0087 52.7989 28.0173 52.5822 28.026C52.3742 28.0433 52.1662 28.052 51.9582 28.052ZM59.336 28.052C59.258 28.052 59.1887 28.0347 59.128 28C59.0674 27.974 59.037 27.935 59.037 27.883C59.037 27.753 59.1454 27.6663 59.362 27.623C59.6914 27.5537 59.9297 27.4583 60.077 27.337C60.2244 27.2157 60.298 27.0163 60.298 26.739V20.837C60.298 20.551 60.2374 20.3473 60.116 20.226C59.9947 20.1047 59.765 20.0093 59.427 19.94C59.2104 19.8967 59.102 19.8057 59.102 19.667C59.102 19.615 59.1324 19.576 59.193 19.55C59.2537 19.5153 59.323 19.498 59.401 19.498C59.609 19.498 59.8127 19.5023 60.012 19.511C60.2114 19.5197 60.402 19.5283 60.584 19.537C60.7747 19.5457 60.9654 19.55 61.156 19.55C61.338 19.55 61.52 19.5457 61.702 19.537C61.8927 19.5283 62.0877 19.5197 62.287 19.511C62.4864 19.5023 62.69 19.498 62.898 19.498C62.9847 19.498 63.054 19.5153 63.106 19.55C63.158 19.576 63.184 19.6193 63.184 19.68C63.184 19.7493 63.1537 19.8057 63.093 19.849C63.041 19.8837 62.963 19.914 62.859 19.94C62.5124 20.0267 62.2784 20.1307 62.157 20.252C62.0357 20.3733 61.975 20.5727 61.975 20.85V26.726C61.975 26.9947 62.0444 27.1897 62.183 27.311C62.3304 27.4323 62.5687 27.5363 62.898 27.623C63.0107 27.649 63.093 27.6793 63.145 27.714C63.2057 27.7487 63.236 27.8007 63.236 27.87C63.236 27.9307 63.21 27.974 63.158 28C63.106 28.026 63.0367 28.039 62.95 28.039C62.742 28.039 62.534 28.0347 62.326 28.026C62.118 28.0173 61.9144 28.0087 61.715 28C61.5244 27.9913 61.338 27.987 61.156 27.987C60.9654 27.987 60.7704 27.9913 60.571 28C60.3717 28.0087 60.168 28.0173 59.96 28.026C59.752 28.0433 59.544 28.052 59.336 28.052ZM64.6848 28.052C64.5808 28.052 64.4985 28.0347 64.4378 28C64.3858 27.974 64.3598 27.935 64.3598 27.883C64.3598 27.8137 64.3945 27.766 64.4638 27.74C64.5418 27.7053 64.6328 27.675 64.7368 27.649C64.9448 27.5883 65.1225 27.4713 65.2698 27.298C65.4171 27.1247 65.5081 26.8993 65.5428 26.622C65.6121 26.0933 65.6771 25.517 65.7378 24.893C65.8071 24.269 65.8678 23.6407 65.9198 23.008C65.9805 22.3753 66.0281 21.7817 66.0628 21.227C66.0628 21.1663 66.0628 21.097 66.0628 21.019C66.0628 20.941 66.0628 20.863 66.0628 20.785C66.0541 20.655 66.0281 20.551 65.9848 20.473C65.9501 20.3863 65.8851 20.3083 65.7898 20.239C65.6685 20.1523 65.5428 20.0873 65.4128 20.044C65.2828 19.992 65.1355 19.9487 64.9708 19.914C64.8755 19.8967 64.7975 19.8663 64.7368 19.823C64.6848 19.771 64.6588 19.7103 64.6588 19.641C64.6588 19.5717 64.6935 19.524 64.7628 19.498C64.8321 19.472 64.9231 19.459 65.0358 19.459C65.1485 19.459 65.3001 19.4633 65.4908 19.472C65.6815 19.4807 65.8851 19.4937 66.1018 19.511C66.3271 19.5197 66.5481 19.5283 66.7648 19.537C66.9815 19.5457 67.1721 19.55 67.3368 19.55C67.4061 19.55 67.4668 19.5717 67.5188 19.615C67.5708 19.6583 67.6055 19.7103 67.6228 19.771C67.6748 19.9357 67.7268 20.096 67.7788 20.252C67.8308 20.408 67.8871 20.5727 67.9478 20.746L69.8978 25.517C69.9238 25.5603 69.9585 25.5863 70.0018 25.595C70.0451 25.595 70.0755 25.5733 70.0928 25.53L72.1858 20.876C72.2465 20.6247 72.2941 20.4037 72.3288 20.213C72.3721 20.0223 72.4111 19.8707 72.4458 19.758C72.4718 19.6453 72.5281 19.589 72.6148 19.589H73.1478C73.4771 19.5717 73.8238 19.5457 74.1878 19.511C74.5518 19.4763 74.8335 19.459 75.0328 19.459C75.1021 19.459 75.1671 19.472 75.2278 19.498C75.2971 19.5153 75.3318 19.5587 75.3318 19.628C75.3318 19.6973 75.3058 19.7493 75.2538 19.784C75.2018 19.8187 75.1238 19.8577 75.0198 19.901C74.9505 19.9183 74.8681 19.9487 74.7728 19.992C74.6775 20.0267 74.5951 20.0613 74.5258 20.096C74.3438 20.174 74.2051 20.2737 74.1098 20.395C74.0231 20.5163 73.9841 20.6897 73.9928 20.915C74.0015 21.5303 74.0188 22.085 74.0448 22.579C74.0708 23.0643 74.0925 23.5237 74.1098 23.957C74.1358 24.3817 74.1661 24.8193 74.2008 25.27C74.2355 25.712 74.2658 26.2017 74.2918 26.739C74.3091 26.9817 74.4001 27.1723 74.5648 27.311C74.7381 27.4497 74.9678 27.5537 75.2538 27.623C75.3578 27.649 75.4401 27.6793 75.5008 27.714C75.5701 27.7487 75.6048 27.8007 75.6048 27.87C75.6048 27.9307 75.5745 27.974 75.5138 28C75.4618 28.026 75.3881 28.039 75.2928 28.039C75.0935 28.039 74.8855 28.0347 74.6688 28.026C74.4521 28.0173 74.2398 28.0087 74.0318 28C73.8325 27.9913 73.6418 27.987 73.4598 27.987C73.2865 27.987 73.1088 27.9913 72.9268 28C72.7448 28.0087 72.5585 28.0173 72.3678 28.026C72.1771 28.0433 71.9778 28.052 71.7698 28.052C71.6831 28.052 71.6051 28.0347 71.5358 28C71.4751 27.974 71.4448 27.935 71.4448 27.883C71.4448 27.8137 71.4751 27.7573 71.5358 27.714C71.6051 27.6707 71.6918 27.6403 71.7958 27.623C72.0905 27.5623 72.2941 27.4713 72.4068 27.35C72.5281 27.2287 72.5801 27.025 72.5628 26.739C72.5541 26.1757 72.5411 25.634 72.5238 25.114C72.5065 24.594 72.4891 24.0783 72.4718 23.567C72.4545 23.0557 72.4328 22.54 72.4068 22.02C72.3981 21.9507 72.3765 21.9203 72.3418 21.929C72.3158 21.929 72.2855 21.9637 72.2508 22.033L69.5988 28.013C69.5641 28.1083 69.5078 28.1473 69.4298 28.13C69.3518 28.1213 69.2998 28.0823 69.2738 28.013C68.8751 27.0077 68.4548 26.0153 68.0128 25.036C67.5795 24.048 67.1505 23.047 66.7258 22.033C66.6998 21.9637 66.6608 21.9377 66.6088 21.955C66.5655 21.9723 66.5395 22.02 66.5308 22.098C66.4875 22.5833 66.4485 23.086 66.4138 23.606C66.3791 24.1173 66.3575 24.6287 66.3488 25.14C66.3401 25.6513 66.3358 26.1583 66.3358 26.661C66.3358 26.895 66.4095 27.0943 66.5568 27.259C66.7128 27.4237 66.9468 27.545 67.2588 27.623C67.3628 27.6403 67.4495 27.6707 67.5188 27.714C67.5968 27.7487 67.6358 27.8007 67.6358 27.87C67.6358 27.9307 67.6011 27.974 67.5318 28C67.4625 28.026 67.3845 28.039 67.2978 28.039C67.0638 28.039 66.8861 28.0347 66.7648 28.026C66.6435 28.0173 66.5308 28.0087 66.4268 28C66.3228 27.9913 66.1841 27.987 66.0108 27.987C65.8288 27.987 65.6555 27.9913 65.4908 28C65.3348 28.0087 65.1875 28.0173 65.0488 28.026C64.9101 28.0433 64.7888 28.052 64.6848 28.052ZM77.2442 28.065C77.1489 28.065 77.0709 28.0477 77.0102 28.013C76.9582 27.9783 76.9322 27.935 76.9322 27.883C76.9322 27.7703 77.0449 27.688 77.2702 27.636C77.5822 27.558 77.8032 27.4627 77.9332 27.35C78.0719 27.2287 78.1412 27.025 78.1412 26.739V20.85C78.1412 20.5553 78.0806 20.3473 77.9592 20.226C77.8466 20.1047 77.6299 20.0093 77.3092 19.94C77.1879 19.914 77.1012 19.8793 77.0492 19.836C76.9972 19.784 76.9712 19.732 76.9712 19.68C76.9712 19.6193 76.9972 19.576 77.0492 19.55C77.1099 19.5153 77.1879 19.498 77.2832 19.498C77.5346 19.498 77.7729 19.5023 77.9982 19.511C78.2322 19.5197 78.4576 19.5283 78.6742 19.537C78.8909 19.5457 79.1162 19.55 79.3502 19.55C79.7489 19.55 80.1692 19.5457 80.6112 19.537C81.0619 19.5283 81.4649 19.524 81.8202 19.524C82.1062 19.5153 82.3402 19.5023 82.5222 19.485C82.7129 19.4677 82.8256 19.459 82.8602 19.459C82.9209 19.459 82.9816 19.472 83.0422 19.498C83.1116 19.524 83.1506 19.576 83.1592 19.654C83.1939 19.94 83.2372 20.2217 83.2892 20.499C83.3412 20.7763 83.3672 21.019 83.3672 21.227C83.3672 21.305 83.3456 21.3657 83.3022 21.409C83.2676 21.4437 83.2286 21.461 83.1852 21.461C83.1419 21.461 83.1029 21.448 83.0682 21.422C83.0336 21.3873 83.0032 21.3397 82.9772 21.279C82.9079 21.0797 82.8429 20.9063 82.7822 20.759C82.7216 20.6117 82.6522 20.499 82.5742 20.421C82.4616 20.2997 82.3316 20.2043 82.1842 20.135C82.0369 20.0657 81.8592 20.031 81.6512 20.031H80.4422C80.2862 20.031 80.1432 20.0787 80.0132 20.174C79.8832 20.2607 79.8182 20.3863 79.8182 20.551V23.099C79.8182 23.1943 79.8442 23.268 79.8962 23.32C79.9569 23.372 80.0262 23.398 80.1042 23.398H81.3002C81.5342 23.398 81.6989 23.333 81.7942 23.203C81.8982 23.073 81.9849 22.8953 82.0542 22.67C82.1149 22.4967 82.1972 22.41 82.3012 22.41C82.3446 22.41 82.3836 22.436 82.4182 22.488C82.4529 22.5313 82.4702 22.592 82.4702 22.67C82.4616 22.7567 82.4529 22.8607 82.4442 22.982C82.4356 23.1033 82.4269 23.2247 82.4182 23.346C82.4182 23.4673 82.4182 23.5757 82.4182 23.671C82.4182 23.775 82.4182 23.892 82.4182 24.022C82.4269 24.152 82.4312 24.282 82.4312 24.412C82.4399 24.5333 82.4486 24.6373 82.4572 24.724C82.4659 24.8193 82.4572 24.893 82.4312 24.945C82.4139 24.997 82.3792 25.023 82.3272 25.023C82.1886 25.023 82.0889 24.9017 82.0282 24.659C81.9589 24.4163 81.8766 24.2343 81.7812 24.113C81.6859 23.9917 81.5559 23.931 81.3912 23.931H80.1692C80.0566 23.931 79.9699 23.9527 79.9092 23.996C79.8486 24.0393 79.8182 24.1217 79.8182 24.243V26.713C79.8182 26.999 79.8789 27.1983 80.0002 27.311C80.1216 27.4237 80.3079 27.48 80.5592 27.48H81.6252C81.8419 27.48 82.0369 27.4583 82.2102 27.415C82.3922 27.3717 82.5482 27.3023 82.6782 27.207C82.8256 27.103 82.9556 26.9643 83.0682 26.791C83.1896 26.609 83.3066 26.4097 83.4192 26.193C83.4539 26.1237 83.4886 26.0803 83.5232 26.063C83.5579 26.037 83.6012 26.024 83.6532 26.024C83.6966 26.0327 83.7269 26.0587 83.7442 26.102C83.7702 26.1453 83.7832 26.193 83.7832 26.245C83.7832 26.3663 83.7616 26.5223 83.7182 26.713C83.6749 26.9037 83.6186 27.103 83.5492 27.311C83.4886 27.5103 83.4322 27.6967 83.3802 27.87C83.3542 27.9307 83.3196 27.974 83.2762 28C83.2329 28.0347 83.1809 28.052 83.1202 28.052C82.9122 28.052 82.6436 28.0477 82.3142 28.039C81.9936 28.039 81.6426 28.0347 81.2612 28.026C80.8799 28.0173 80.4899 28.0087 80.0912 28C79.6926 28 79.3112 28 78.9472 28C78.7652 28 78.5789 28.0043 78.3882 28.013C78.2062 28.0217 78.0199 28.0303 77.8292 28.039C77.6386 28.0563 77.4436 28.065 77.2442 28.065ZM87.466 28.195C87.0933 28.195 86.738 28.1473 86.4 28.052C86.0706 27.9567 85.7673 27.8137 85.49 27.623C85.438 27.5797 85.3903 27.5363 85.347 27.493C85.3036 27.441 85.269 27.3847 85.243 27.324C85.1736 27.1073 85.126 26.843 85.1 26.531C85.074 26.2103 85.0653 25.9027 85.074 25.608C85.074 25.5473 85.0956 25.504 85.139 25.478C85.191 25.452 85.2516 25.439 85.321 25.439C85.3903 25.439 85.4423 25.452 85.477 25.478C85.5203 25.4953 85.5506 25.5343 85.568 25.595C85.7586 26.245 86.036 26.752 86.4 27.116C86.764 27.48 87.1756 27.662 87.635 27.662C87.921 27.662 88.1636 27.597 88.363 27.467C88.5623 27.337 88.714 27.168 88.818 26.96C88.922 26.752 88.974 26.5267 88.974 26.284C88.974 25.9807 88.9176 25.7293 88.805 25.53C88.701 25.3307 88.5406 25.153 88.324 24.997C88.1073 24.8323 87.8343 24.659 87.505 24.477C87.1496 24.269 86.803 24.0523 86.465 23.827C86.127 23.593 85.8496 23.32 85.633 23.008C85.4163 22.6873 85.308 22.293 85.308 21.825C85.308 21.3397 85.4293 20.915 85.672 20.551C85.9233 20.1783 86.27 19.888 86.712 19.68C87.154 19.472 87.6653 19.368 88.246 19.368C88.5666 19.368 88.8656 19.4027 89.143 19.472C89.4203 19.5413 89.6413 19.6107 89.806 19.68C89.9013 19.7147 89.9706 19.758 90.014 19.81C90.066 19.862 90.105 19.9443 90.131 20.057C90.183 20.239 90.2263 20.4557 90.261 20.707C90.3043 20.9583 90.326 21.2227 90.326 21.5C90.326 21.604 90.248 21.656 90.092 21.656C90.0226 21.656 89.9533 21.6387 89.884 21.604C89.8146 21.5693 89.7713 21.5217 89.754 21.461C89.598 20.9583 89.3813 20.577 89.104 20.317C88.8353 20.057 88.5016 19.927 88.103 19.927C87.8343 19.927 87.6046 19.9747 87.414 20.07C87.2233 20.1567 87.0716 20.2953 86.959 20.486C86.8463 20.668 86.79 20.9063 86.79 21.201C86.79 21.4263 86.8636 21.6343 87.011 21.825C87.167 22.0157 87.3793 22.202 87.648 22.384C87.9253 22.566 88.233 22.7653 88.571 22.982C88.987 23.2247 89.3336 23.4717 89.611 23.723C89.897 23.9657 90.1136 24.2387 90.261 24.542C90.4083 24.8367 90.482 25.1877 90.482 25.595C90.482 26.167 90.3563 26.648 90.105 27.038C89.8536 27.4193 89.5026 27.7097 89.052 27.909C88.6013 28.0997 88.0726 28.195 87.466 28.195Z" fill="white"/>
<path d="M15 26L1.31134e-07 24.5L15 23L15 26Z" fill="#A36630"/>
<path d="M96 23L111 24.5L96 26V23Z" fill="#A36630"/>
</svg>
