<svg width="200" height="50" viewBox="0 0 200 50" fill="none" xmlns="http://www.w3.org/2000/svg">
<path d="M11.6363 25.264C10.6936 25.264 9.80109 25.1194 8.95889 24.8303C8.1167 24.5286 7.36878 24.1012 6.71514 23.5482C6.07406 22.9951 5.56497 22.3351 5.18787 21.5684C4.82334 20.789 4.64107 19.928 4.64107 18.9852C4.64107 18.1053 4.82334 17.2757 5.18787 16.4963C5.5524 15.717 6.06778 15.0256 6.73399 14.4223C7.40021 13.8189 8.19212 13.3475 9.10974 13.0081C10.0399 12.6562 11.0581 12.4802 12.1643 12.4802C12.5916 12.4802 12.9939 12.5116 13.371 12.5745C13.7607 12.6248 14.1378 12.6939 14.5023 12.7819C14.8668 12.8573 15.2251 12.9579 15.577 13.0836C15.7153 13.1339 15.8222 13.203 15.8976 13.291C15.9856 13.379 16.0358 13.4984 16.0484 13.6492C16.0987 14.0263 16.1364 14.4034 16.1615 14.7805C16.1867 15.1451 16.1993 15.5096 16.1993 15.8741C16.2118 15.9998 16.1678 16.0941 16.0673 16.157C15.9667 16.2072 15.8599 16.2135 15.7467 16.1758C15.6336 16.1255 15.5519 16.0313 15.5016 15.893C15.4011 15.541 15.2816 15.2142 15.1434 14.9125C15.0177 14.5983 14.8228 14.3343 14.5589 14.1206C14.2698 13.8818 13.9052 13.6932 13.4653 13.5549C13.0253 13.4041 12.5099 13.3287 11.9191 13.3287C11.2404 13.3287 10.6244 13.467 10.0713 13.7435C9.51826 14.02 9.0406 14.4034 8.63836 14.8937C8.24868 15.3839 7.947 15.937 7.73331 16.5529C7.51962 17.1688 7.41278 17.8162 7.41278 18.495C7.41278 19.2995 7.50705 20.06 7.6956 20.7765C7.89672 21.4929 8.19212 22.1277 8.58179 22.6808C8.98403 23.2213 9.46798 23.6487 10.0336 23.963C10.5993 24.2647 11.2466 24.4155 11.9757 24.4155C12.9059 24.4155 13.6601 24.2144 14.2383 23.8121C14.8165 23.4099 15.3068 22.8128 15.709 22.0209C15.8096 21.8198 15.9479 21.7255 16.1238 21.7381C16.2998 21.7381 16.3878 21.8386 16.3878 22.0397C16.3878 22.1906 16.369 22.3791 16.3312 22.6054C16.2935 22.8317 16.237 23.0768 16.1615 23.3408C16.0987 23.5922 16.0233 23.8436 15.9353 24.095C15.885 24.2458 15.8222 24.3589 15.7467 24.4343C15.6713 24.5098 15.5582 24.5789 15.4073 24.6418C14.9297 24.8429 14.364 24.9937 13.7104 25.0943C13.0693 25.2074 12.378 25.264 11.6363 25.264ZM17.9148 25.0943C17.7765 25.0943 17.6634 25.0691 17.5754 25.0189C17.5 24.9686 17.4623 24.9057 17.4623 24.8303C17.4623 24.6669 17.6257 24.5475 17.9525 24.4721C18.405 24.3589 18.7255 24.2207 18.9141 24.0572C19.1152 23.8813 19.2158 23.5859 19.2158 23.1711V14.6297C19.2158 14.2023 19.1278 13.9006 18.9518 13.7246C18.7884 13.5487 18.4741 13.4104 18.0091 13.3098C17.8331 13.2721 17.7074 13.2218 17.6319 13.159C17.5565 13.0836 17.5188 13.0081 17.5188 12.9327C17.5188 12.8447 17.5565 12.7819 17.6319 12.7442C17.7199 12.6939 17.8331 12.6688 17.9713 12.6688C18.3359 12.6688 18.6816 12.675 19.0084 12.6876C19.3478 12.7002 19.6746 12.7128 19.9888 12.7253C20.3031 12.7379 20.6299 12.7442 20.9693 12.7442C21.5475 12.7442 22.1572 12.7379 22.7983 12.7253C23.4519 12.7128 24.0364 12.7065 24.5518 12.7065C24.9666 12.6939 25.306 12.675 25.57 12.6499C25.8465 12.6248 26.0099 12.6122 26.0602 12.6122C26.1482 12.6122 26.2362 12.631 26.3242 12.6688C26.4247 12.7065 26.4813 12.7819 26.4939 12.895C26.5441 13.3098 26.607 13.7184 26.6824 14.1206C26.7578 14.5228 26.7955 14.8748 26.7955 15.1765C26.7955 15.2896 26.7641 15.3776 26.7013 15.4405C26.651 15.4907 26.5944 15.5159 26.5316 15.5159C26.4687 15.5159 26.4121 15.497 26.3619 15.4593C26.3116 15.409 26.2676 15.3399 26.2299 15.2519C26.1293 14.9628 26.035 14.7114 25.9471 14.4977C25.8591 14.284 25.7585 14.1206 25.6454 14.0075C25.482 13.8315 25.2934 13.6932 25.0797 13.5927C24.866 13.4921 24.6083 13.4418 24.3067 13.4418H22.5531C22.3269 13.4418 22.1195 13.511 21.9309 13.6492C21.7424 13.7749 21.6481 13.9572 21.6481 14.196V17.8916C21.6481 18.0299 21.6858 18.1367 21.7612 18.2122C21.8492 18.2876 21.9498 18.3253 22.0629 18.3253H23.7976C24.137 18.3253 24.3758 18.231 24.5141 18.0425C24.6649 17.8539 24.7906 17.5962 24.8912 17.2694C24.9792 17.018 25.0986 16.8923 25.2494 16.8923C25.3123 16.8923 25.3688 16.93 25.4191 17.0054C25.4694 17.0683 25.4945 17.1563 25.4945 17.2694C25.482 17.3951 25.4694 17.5459 25.4568 17.7219C25.4443 17.8979 25.4317 18.0739 25.4191 18.2499C25.4191 18.4259 25.4191 18.583 25.4191 18.7212C25.4191 18.8721 25.4191 19.0418 25.4191 19.2303C25.4317 19.4189 25.438 19.6074 25.438 19.796C25.4505 19.972 25.4631 20.1228 25.4757 20.2485C25.4882 20.3868 25.4757 20.4936 25.438 20.569C25.4128 20.6445 25.3625 20.6822 25.2871 20.6822C25.086 20.6822 24.9414 20.5062 24.8535 20.1542C24.7529 19.8023 24.6335 19.5383 24.4952 19.3623C24.3569 19.1863 24.1684 19.0984 23.9296 19.0984H22.1572C21.9938 19.0984 21.8681 19.1298 21.7801 19.1926C21.6921 19.2555 21.6481 19.3749 21.6481 19.5509V23.1333C21.6481 23.5482 21.7361 23.8373 21.9121 24.0007C22.088 24.1641 22.3583 24.2458 22.7228 24.2458H24.2689C24.5832 24.2458 24.866 24.2144 25.1174 24.1515C25.3814 24.0887 25.6077 23.9881 25.7962 23.8498C26.0099 23.699 26.1985 23.4979 26.3619 23.2465C26.5378 22.9825 26.7075 22.6934 26.871 22.3791C26.9212 22.2786 26.9715 22.2157 27.0218 22.1906C27.0721 22.1529 27.1349 22.134 27.2103 22.134C27.2732 22.1466 27.3172 22.1843 27.3423 22.2472C27.38 22.31 27.3989 22.3791 27.3989 22.4546C27.3989 22.6305 27.3675 22.8568 27.3046 23.1333C27.2418 23.4099 27.1601 23.699 27.0595 24.0007C26.9715 24.2898 26.8898 24.56 26.8144 24.8114C26.7767 24.8994 26.7264 24.9623 26.6635 25C26.6007 25.0503 26.5253 25.0754 26.4373 25.0754C26.1356 25.0754 25.7459 25.0691 25.2683 25.0566C24.8032 25.0566 24.2941 25.0503 23.741 25.0377C23.1879 25.0251 22.6223 25.0126 22.044 25C21.4658 25 20.9127 25 20.3848 25C20.1208 25 19.8506 25.0063 19.574 25.0189C19.3101 25.0314 19.0398 25.044 18.7633 25.0566C18.4867 25.0817 18.2039 25.0943 17.9148 25.0943ZM28.2528 25.0943C28.1146 25.0943 28.0077 25.0629 27.9323 25C27.8569 24.9497 27.8192 24.8932 27.8192 24.8303C27.8192 24.7297 27.8632 24.6543 27.9511 24.604C28.0391 24.5412 28.1271 24.4972 28.2151 24.4721C28.6676 24.3589 29.0007 24.2207 29.2144 24.0572C29.4281 23.8813 29.535 23.5984 29.535 23.2088V14.5354C29.535 14.2463 29.4973 14.0263 29.4218 13.8755C29.359 13.7246 29.2396 13.6115 29.0636 13.5361C28.9002 13.4481 28.6551 13.3727 28.3282 13.3098C28.0014 13.247 27.838 13.115 27.838 12.9139C27.838 12.8385 27.882 12.7819 27.97 12.7442C28.058 12.6939 28.1586 12.6688 28.2717 12.6688C28.5859 12.6688 28.8813 12.675 29.1579 12.6876C29.447 12.7002 29.7235 12.7128 29.9875 12.7253C30.2515 12.7379 30.5154 12.7442 30.7794 12.7442C31.0685 12.7442 31.3576 12.7379 31.6467 12.7253C31.9484 12.7128 32.2501 12.7002 32.5518 12.6876C32.866 12.675 33.1677 12.6688 33.4568 12.6688C33.5825 12.6688 33.6831 12.6939 33.7585 12.7442C33.8339 12.7819 33.8717 12.8447 33.8717 12.9327C33.8717 13.0333 33.8277 13.115 33.7397 13.1778C33.6642 13.2281 33.5511 13.2721 33.4003 13.3098C32.91 13.4355 32.5455 13.5738 32.3067 13.7246C32.0804 13.8629 31.9673 14.1143 31.9673 14.4788V23.0956C31.9673 23.4602 32.049 23.7304 32.2124 23.9064C32.3758 24.0698 32.6838 24.1515 33.1363 24.1515H35.1915C35.4806 24.1515 35.7446 24.1012 35.9834 24.0007C36.2223 23.9001 36.4171 23.7744 36.5679 23.6236C36.7942 23.4225 36.9827 23.2088 37.1336 22.9825C37.2844 22.7562 37.429 22.4923 37.5673 22.1906C37.6552 22.002 37.7369 21.8575 37.8124 21.7569C37.8878 21.6564 37.9632 21.6061 38.0386 21.6061C38.1266 21.6061 38.1895 21.6501 38.2272 21.7381C38.2649 21.8135 38.2837 21.8952 38.2837 21.9832C38.2837 21.9958 38.2775 22.0335 38.2649 22.0963C38.2523 22.1592 38.246 22.2094 38.246 22.2472C38.1455 22.6117 38.0575 22.9259 37.9821 23.1899C37.9192 23.4539 37.8626 23.7116 37.8124 23.963C37.7747 24.2018 37.7369 24.4658 37.6992 24.7549C37.6867 24.8429 37.6615 24.9246 37.6238 25C37.5861 25.0629 37.5107 25.0943 37.3976 25.0943C37.0205 25.0943 36.5679 25.088 36.04 25.0754C35.512 25.0629 34.9527 25.0503 34.3619 25.0377C33.7711 25.0377 33.174 25.0314 32.5706 25.0189C31.9799 25.0063 31.4205 25 30.8925 25C30.616 25 30.2955 25.0063 29.9309 25.0189C29.579 25.0314 29.2459 25.044 28.9316 25.0566C28.6174 25.0817 28.3911 25.0943 28.2528 25.0943ZM38.9618 25.0943C38.8235 25.0943 38.7104 25.0691 38.6224 25.0189C38.547 24.9686 38.5093 24.9057 38.5093 24.8303C38.5093 24.6669 38.6727 24.5475 38.9995 24.4721C39.452 24.3589 39.7726 24.2207 39.9611 24.0572C40.1622 23.8813 40.2628 23.5859 40.2628 23.1711V14.6297C40.2628 14.2023 40.1748 13.9006 39.9988 13.7246C39.8354 13.5487 39.5212 13.4104 39.0561 13.3098C38.8801 13.2721 38.7544 13.2218 38.679 13.159C38.6035 13.0836 38.5658 13.0081 38.5658 12.9327C38.5658 12.8447 38.6035 12.7819 38.679 12.7442C38.767 12.6939 38.8801 12.6688 39.0184 12.6688C39.3829 12.6688 39.7286 12.675 40.0554 12.6876C40.3948 12.7002 40.7216 12.7128 41.0359 12.7253C41.3501 12.7379 41.6769 12.7442 42.0163 12.7442C42.5945 12.7442 43.2042 12.7379 43.8453 12.7253C44.4989 12.7128 45.0834 12.7065 45.5988 12.7065C46.0136 12.6939 46.353 12.675 46.617 12.6499C46.8935 12.6248 47.0569 12.6122 47.1072 12.6122C47.1952 12.6122 47.2832 12.631 47.3712 12.6688C47.4717 12.7065 47.5283 12.7819 47.5409 12.895C47.5911 13.3098 47.654 13.7184 47.7294 14.1206C47.8048 14.5228 47.8425 14.8748 47.8425 15.1765C47.8425 15.2896 47.8111 15.3776 47.7483 15.4405C47.698 15.4907 47.6414 15.5159 47.5786 15.5159C47.5157 15.5159 47.4592 15.497 47.4089 15.4593C47.3586 15.409 47.3146 15.3399 47.2769 15.2519C47.1763 14.9628 47.0821 14.7114 46.9941 14.4977C46.9061 14.284 46.8055 14.1206 46.6924 14.0075C46.529 13.8315 46.3404 13.6932 46.1267 13.5927C45.913 13.4921 45.6554 13.4418 45.3537 13.4418H43.6001C43.3739 13.4418 43.1665 13.511 42.9779 13.6492C42.7894 13.7749 42.6951 13.9572 42.6951 14.196V17.8916C42.6951 18.0299 42.7328 18.1367 42.8082 18.2122C42.8962 18.2876 42.9968 18.3253 43.1099 18.3253H44.8446C45.184 18.3253 45.4228 18.231 45.5611 18.0425C45.7119 17.8539 45.8376 17.5962 45.9382 17.2694C46.0262 17.018 46.1456 16.8923 46.2964 16.8923C46.3593 16.8923 46.4158 16.93 46.4661 17.0054C46.5164 17.0683 46.5415 17.1563 46.5415 17.2694C46.529 17.3951 46.5164 17.5459 46.5038 17.7219C46.4913 17.8979 46.4787 18.0739 46.4661 18.2499C46.4661 18.4259 46.4661 18.583 46.4661 18.7212C46.4661 18.8721 46.4661 19.0418 46.4661 19.2303C46.4787 19.4189 46.485 19.6074 46.485 19.796C46.4976 19.972 46.5101 20.1228 46.5227 20.2485C46.5353 20.3868 46.5227 20.4936 46.485 20.569C46.4598 20.6445 46.4096 20.6822 46.3341 20.6822C46.133 20.6822 45.9885 20.5062 45.9005 20.1542C45.7999 19.8023 45.6805 19.5383 45.5422 19.3623C45.404 19.1863 45.2154 19.0984 44.9766 19.0984H43.2042C43.0408 19.0984 42.9151 19.1298 42.8271 19.1926C42.7391 19.2555 42.6951 19.3749 42.6951 19.5509V23.1333C42.6951 23.5482 42.7831 23.8373 42.9591 24.0007C43.1351 24.1641 43.4053 24.2458 43.7698 24.2458H45.316C45.6302 24.2458 45.913 24.2144 46.1644 24.1515C46.4284 24.0887 46.6547 23.9881 46.8432 23.8498C47.0569 23.699 47.2455 23.4979 47.4089 23.2465C47.5849 22.9825 47.7546 22.6934 47.918 22.3791C47.9682 22.2786 48.0185 22.2157 48.0688 22.1906C48.1191 22.1529 48.1819 22.134 48.2574 22.134C48.3202 22.1466 48.3642 22.1843 48.3893 22.2472C48.4271 22.31 48.4459 22.3791 48.4459 22.4546C48.4459 22.6305 48.4145 22.8568 48.3516 23.1333C48.2888 23.4099 48.2071 23.699 48.1065 24.0007C48.0185 24.2898 47.9368 24.56 47.8614 24.8114C47.8237 24.8994 47.7734 24.9623 47.7106 25C47.6477 25.0503 47.5723 25.0754 47.4843 25.0754C47.1826 25.0754 46.7929 25.0691 46.3153 25.0566C45.8502 25.0566 45.3411 25.0503 44.788 25.0377C44.2349 25.0251 43.6693 25.0126 43.0911 25C42.5128 25 41.9598 25 41.4318 25C41.1678 25 40.8976 25.0063 40.621 25.0189C40.3571 25.0314 40.0868 25.044 39.8103 25.0566C39.5337 25.0817 39.2509 25.0943 38.9618 25.0943ZM49.2056 25.0943C49.0673 25.0943 48.9542 25.0691 48.8662 25.0189C48.7908 24.9686 48.753 24.9057 48.753 24.8303C48.753 24.6669 48.9165 24.5475 49.2433 24.4721C49.6832 24.3589 50.0038 24.2207 50.2049 24.0572C50.4186 23.8813 50.5254 23.5859 50.5254 23.1711V14.6297C50.5254 14.2023 50.4374 13.8943 50.2615 13.7058C50.098 13.5172 49.7901 13.3853 49.3376 13.3098C49.1616 13.2847 49.0359 13.2344 48.9604 13.159C48.885 13.0836 48.8473 13.0081 48.8473 12.9327C48.8473 12.8447 48.885 12.7819 48.9604 12.7442C49.0484 12.6939 49.1616 12.6688 49.2998 12.6688C49.6769 12.6688 49.9849 12.675 50.2237 12.6876C50.4626 12.7002 50.6888 12.719 50.9025 12.7442C51.1162 12.7567 51.3676 12.763 51.6567 12.763C51.9333 12.763 52.1784 12.7505 52.3921 12.7253C52.6183 12.7002 52.8635 12.675 53.1274 12.6499C53.3914 12.6248 53.7308 12.6122 54.1456 12.6122C55.6289 12.6122 56.7476 12.8259 57.5018 13.2533C58.2686 13.6681 58.652 14.3909 58.652 15.4216C58.652 15.8238 58.564 16.1947 58.388 16.5341C58.2246 16.8734 58.0298 17.1374 57.8035 17.326C57.6024 17.5145 57.4013 17.6654 57.2001 17.7785C56.999 17.8916 56.7539 17.9922 56.4648 18.0802C56.4145 18.0927 56.3894 18.1242 56.3894 18.1744C56.3894 18.2247 56.4145 18.2562 56.4648 18.2687C56.779 18.3441 57.0996 18.4447 57.4264 18.5704C57.7658 18.6961 58.08 18.8721 58.3691 19.0984C58.6708 19.3246 58.9097 19.62 59.0856 19.9845C59.2742 20.3365 59.3685 20.789 59.3685 21.3421C59.3685 22.046 59.2553 22.6054 59.0291 23.0202C58.8154 23.4225 58.5514 23.7304 58.2372 23.9441C57.9355 24.1578 57.6527 24.3338 57.3887 24.4721C56.9864 24.6732 56.5213 24.824 55.9934 24.9246C55.478 25.0251 54.8558 25.0754 54.1268 25.0754C53.7874 25.0754 53.4228 25.0629 53.0332 25.0377C52.6435 25.0126 52.235 25 51.8076 25C51.5185 25 51.2293 25.0063 50.9402 25.0189C50.6637 25.0314 50.3809 25.044 50.0918 25.0566C49.8026 25.0817 49.5072 25.0943 49.2056 25.0943ZM54.221 24.1327C54.661 24.1327 55.0695 24.0132 55.4466 23.7744C55.8237 23.5356 56.1254 23.215 56.3517 22.8128C56.5779 22.4106 56.691 21.9643 56.691 21.4741C56.691 21.009 56.6282 20.6319 56.5025 20.3428C56.3768 20.0411 56.226 19.8023 56.05 19.6263C55.8866 19.4377 55.7357 19.2995 55.5974 19.2115C55.4717 19.1235 55.2643 19.0292 54.9752 18.9287C54.6987 18.8281 54.3404 18.7778 53.9005 18.7778C53.6239 18.7778 53.3977 18.8407 53.2217 18.9664C53.0457 19.0921 52.9577 19.2366 52.9577 19.4V22.8882C52.9577 23.3282 53.0646 23.6487 53.2783 23.8498C53.5045 24.0384 53.8188 24.1327 54.221 24.1327ZM53.7496 18.0425C54.0639 18.0425 54.3719 18.0048 54.6735 17.9293C54.9752 17.8539 55.2769 17.7156 55.5786 17.5145C55.6917 17.4265 55.83 17.2443 55.9934 16.9677C56.1694 16.6912 56.2574 16.2889 56.2574 15.761C56.2574 15.2959 56.1882 14.8811 56.05 14.5166C55.9243 14.152 55.698 13.8692 55.3712 13.6681C55.0569 13.4544 54.617 13.3475 54.0513 13.3475C53.6365 13.3475 53.3474 13.4167 53.184 13.5549C53.0332 13.6932 52.9577 13.9006 52.9577 14.1772V17.3637C52.9577 17.6277 53.052 17.8099 53.2406 17.9105C53.4291 17.9985 53.5988 18.0425 53.7496 18.0425ZM71.7239 25.396C71.1834 25.396 70.712 25.3331 70.3097 25.2074C69.9075 25.0943 69.5618 24.9246 69.2727 24.6983C68.9836 24.4721 68.7196 24.2081 68.4808 23.9064C68.2043 23.5293 67.934 23.1648 67.67 22.8128C67.4061 22.4483 67.1358 22.0523 66.8593 21.6249C66.5953 21.185 66.2999 20.6633 65.9731 20.06C65.8097 19.7708 65.6022 19.5572 65.3508 19.4189C65.1874 19.3309 65.0177 19.268 64.8418 19.2303C64.6783 19.1926 64.5401 19.1738 64.4269 19.1738C64.3515 19.1612 64.295 19.1926 64.2572 19.268C64.2195 19.3435 64.2007 19.4377 64.2007 19.5509V23.0579C64.2007 23.4476 64.3012 23.7493 64.5024 23.963C64.7161 24.1767 65.0743 24.3401 65.5771 24.4532C65.7405 24.4783 65.8599 24.5223 65.9354 24.5852C66.0108 24.6355 66.0485 24.7109 66.0485 24.8114C66.0485 24.8994 66.0108 24.9623 65.9354 25C65.8725 25.0377 65.7719 25.0566 65.6337 25.0566C65.3446 25.0566 65.0492 25.044 64.7475 25.0189C64.4458 25.0063 64.1504 24.9937 63.8613 24.9811C63.5848 24.9686 63.3208 24.9623 63.0694 24.9623C62.7928 24.9623 62.5037 24.9686 62.202 24.9811C61.9129 24.9937 61.6175 25.0126 61.3159 25.0377C61.0142 25.0629 60.7125 25.0754 60.4108 25.0754C60.2977 25.0754 60.1971 25.0503 60.1091 25C60.0211 24.9623 59.9771 24.9057 59.9771 24.8303C59.9771 24.6418 60.1343 24.5161 60.4485 24.4532C60.9262 24.3526 61.2656 24.2144 61.4667 24.0384C61.6678 23.8624 61.7684 23.567 61.7684 23.1522V14.8182C61.7684 14.4537 61.737 14.1772 61.6741 13.9886C61.6238 13.7875 61.517 13.6367 61.3536 13.5361C61.1902 13.4355 60.945 13.3601 60.6182 13.3098C60.4422 13.2847 60.3165 13.2344 60.2411 13.159C60.1657 13.0836 60.128 13.0081 60.128 12.9327C60.128 12.8447 60.1657 12.7819 60.2411 12.7442C60.3291 12.6939 60.4422 12.6688 60.5805 12.6688C60.9576 12.6688 61.2593 12.675 61.4855 12.6876C61.7118 12.7002 61.9255 12.719 62.1266 12.7442C62.3403 12.7567 62.5917 12.763 62.8808 12.763C63.1574 12.763 63.4025 12.7505 63.6162 12.7253C63.8299 12.7002 64.0687 12.675 64.3327 12.6499C64.5966 12.6248 64.936 12.6122 65.3508 12.6122C66.7964 12.6122 67.9026 12.8636 68.6693 13.3664C69.4361 13.8692 69.8195 14.636 69.8195 15.6667C69.8195 16.2324 69.7001 16.7163 69.4613 17.1186C69.2224 17.5082 68.9207 17.8288 68.5562 18.0802C68.2043 18.3316 67.8397 18.5264 67.4626 18.6647C67.4123 18.6773 67.3872 18.7087 67.3872 18.759C67.3998 18.8092 67.4249 18.8532 67.4626 18.8909C67.8397 19.4692 68.2043 20.0223 68.5562 20.5502C68.9207 21.0656 69.2978 21.5558 69.6875 22.0209C70.0898 22.486 70.5234 22.9322 70.9885 23.3596C71.3782 23.7241 71.7742 23.9441 72.1764 24.0195C72.5912 24.0824 73.0186 24.1138 73.4585 24.1138C73.6471 24.1138 73.7414 24.2081 73.7414 24.3966C73.7414 24.648 73.6471 24.8492 73.4585 25C73.27 25.1383 73.0186 25.2388 72.7043 25.3017C72.4027 25.3645 72.0758 25.396 71.7239 25.396ZM65.0115 18.627C65.5268 18.627 65.9542 18.5138 66.2936 18.2876C66.6456 18.0487 66.9095 17.7345 67.0855 17.3448C67.2741 16.9552 67.3683 16.5215 67.3683 16.0438C67.3683 15.4782 67.2992 15.0005 67.1609 14.6108C67.0227 14.2086 66.7838 13.9006 66.4444 13.6869C66.1176 13.4607 65.6651 13.3475 65.0869 13.3475C64.7601 13.3475 64.5338 13.467 64.4081 13.7058C64.295 13.932 64.2321 14.3971 64.2195 15.1011C64.207 15.3902 64.2007 15.7736 64.2007 16.2512C64.2007 16.7163 64.2007 17.2757 64.2007 17.9293C64.2007 18.2059 64.2698 18.3944 64.4081 18.495C64.5589 18.583 64.7601 18.627 65.0115 18.627ZM74.0566 25.0943C73.9058 25.0943 73.7801 25.0691 73.6795 25.0189C73.5789 24.9811 73.5287 24.912 73.5287 24.8114C73.5287 24.6983 73.5727 24.6103 73.6606 24.5475C73.7612 24.4846 73.8869 24.4281 74.0377 24.3778C74.4023 24.2772 74.7165 24.1264 74.9805 23.9253C75.257 23.7116 75.477 23.4225 75.6404 23.0579C75.9547 22.3163 76.2564 21.6061 76.5455 20.9273C76.8346 20.2359 77.1111 19.5509 77.3751 18.8721C77.6391 18.1933 77.903 17.502 78.167 16.798C78.4436 16.0941 78.7201 15.3525 78.9966 14.5731C79.1349 14.1835 79.2292 13.8818 79.2795 13.6681C79.3297 13.4544 79.3737 13.2973 79.4115 13.1967C79.6 13.1464 79.776 13.0961 79.9394 13.0459C80.1028 12.9956 80.2851 12.9327 80.4862 12.8573C80.6622 12.7693 80.813 12.6562 80.9387 12.5179C81.0644 12.3796 81.1587 12.2728 81.2215 12.1974C81.2593 12.1722 81.297 12.1597 81.3347 12.1597C81.3724 12.1471 81.4101 12.1722 81.4478 12.2351C81.4855 12.3105 81.5169 12.3859 81.5421 12.4614C81.5672 12.5368 81.5924 12.6185 81.6175 12.7065C81.894 13.5989 82.1769 14.504 82.466 15.4216C82.7677 16.3266 83.0631 17.2254 83.3522 18.1179C83.6413 18.9978 83.9178 19.8463 84.1818 20.6633C84.4583 21.4678 84.7097 22.2094 84.936 22.8882C85.0491 23.2276 85.1874 23.4979 85.3508 23.699C85.5268 23.9001 85.7153 24.0572 85.9165 24.1704C86.1302 24.2709 86.3627 24.3526 86.6141 24.4155C86.7775 24.4532 86.9032 24.5035 86.9912 24.5663C87.0792 24.6292 87.1232 24.7172 87.1232 24.8303C87.1232 24.9057 87.0792 24.9623 86.9912 25C86.9158 25.0377 86.8152 25.0566 86.6895 25.0566C86.4633 25.0566 86.1742 25.0503 85.8222 25.0377C85.4828 25.0251 85.1308 25.0126 84.7663 25C84.4018 24.9749 84.075 24.9623 83.7858 24.9623C83.5344 24.9623 83.2516 24.9686 82.9374 24.9811C82.6357 24.9937 82.3277 25.0063 82.0135 25.0189C81.7118 25.0314 81.4541 25.0377 81.2404 25.0377C81.1147 25.0377 81.0016 25.0189 80.901 24.9811C80.813 24.9309 80.769 24.8617 80.769 24.7737C80.769 24.6732 80.8193 24.5915 80.9199 24.5286C81.0204 24.4532 81.1398 24.4029 81.2781 24.3778C81.7306 24.3024 82.0575 24.1892 82.2586 24.0384C82.4597 23.875 82.5351 23.6424 82.4848 23.3408C82.4471 23.1271 82.3906 22.8757 82.3151 22.5865C82.2397 22.2849 82.158 21.9769 82.07 21.6626C81.9946 21.3358 81.9129 21.0404 81.8249 20.7765C81.7998 20.6759 81.7621 20.6068 81.7118 20.569C81.6615 20.5188 81.5672 20.4936 81.429 20.4936H78.035C77.947 20.4936 77.8779 20.5251 77.8276 20.5879C77.7773 20.6382 77.7396 20.7199 77.7145 20.833C77.6642 20.9964 77.6014 21.185 77.5259 21.3987C77.4631 21.5998 77.394 21.8135 77.3185 22.0397C77.2557 22.2534 77.1928 22.4546 77.13 22.6431C77.0797 22.8317 77.042 22.9951 77.0169 23.1333C76.954 23.4727 77.0106 23.743 77.1866 23.9441C77.3751 24.1327 77.6956 24.2835 78.1482 24.3966C78.4876 24.4846 78.6572 24.6166 78.6572 24.7926C78.6572 24.868 78.6133 24.9309 78.5253 24.9811C78.4498 25.0189 78.3367 25.0377 78.1859 25.0377C77.8968 25.0377 77.5951 25.0251 77.2808 25C76.9666 24.9874 76.6209 24.9811 76.2438 24.9811C75.8667 24.9811 75.4959 25 75.1313 25.0377C74.7794 25.0754 74.4211 25.0943 74.0566 25.0943ZM78.5441 19.6263H81.165C81.341 19.6263 81.429 19.5886 81.429 19.5132C81.429 19.4755 81.4227 19.444 81.4101 19.4189C81.4101 19.3937 81.4038 19.356 81.3912 19.3058L80.0714 14.9502C80.0211 14.7742 79.9771 14.6863 79.9394 14.6863C79.9143 14.6863 79.8703 14.768 79.8074 14.9314L78.2236 19.3058C78.1984 19.3686 78.1859 19.4189 78.1859 19.4566C78.1859 19.5194 78.2173 19.5634 78.2801 19.5886C78.3556 19.6137 78.4436 19.6263 78.5441 19.6263ZM88.7864 25.0754C88.6607 25.0754 88.5476 25.0503 88.447 25C88.359 24.9623 88.315 24.9057 88.315 24.8303C88.315 24.7297 88.359 24.648 88.447 24.5852C88.535 24.5223 88.6607 24.4783 88.8241 24.4532C89.3018 24.3526 89.6538 24.2144 89.88 24.0384C90.1063 23.8498 90.2194 23.5482 90.2194 23.1333V15.497C90.2194 14.9817 90.2068 14.592 90.1817 14.328C90.1566 14.064 90.1188 13.8881 90.0686 13.8001C90.0309 13.6995 89.968 13.6429 89.88 13.6304C89.7543 13.5801 89.5972 13.5487 89.4086 13.5361C89.2201 13.5235 89.0378 13.5172 88.8618 13.5172H88.2773C87.9128 13.5172 87.5608 13.6052 87.2214 13.7812C86.8821 13.9446 86.6181 14.1709 86.4295 14.46C86.3793 14.5354 86.2975 14.6423 86.1844 14.7805C86.0839 14.9188 85.9707 15.0445 85.845 15.1576C85.7319 15.2708 85.6125 15.3273 85.4868 15.3273C85.3988 15.3273 85.3359 15.2959 85.2982 15.2331C85.2731 15.1702 85.2605 15.1011 85.2605 15.0256C85.2605 14.8748 85.2982 14.724 85.3736 14.5731C85.5873 14.1457 85.7445 13.7749 85.845 13.4607C85.9582 13.1339 86.0336 12.7505 86.0713 12.3105C86.0964 12.122 86.1467 12.0025 86.2221 11.9523C86.3101 11.8894 86.3981 11.858 86.4861 11.858C86.5615 11.858 86.6495 11.9397 86.7501 12.1031C86.8632 12.2539 86.9638 12.3796 87.0518 12.4802C87.1649 12.5933 87.366 12.6813 87.6551 12.7442C87.9442 12.7945 88.1893 12.8196 88.3905 12.8196L95.348 12.8007C95.7 12.8007 95.9954 12.7756 96.2342 12.7253C96.473 12.6625 96.6616 12.5996 96.7998 12.5368C96.9884 12.4236 97.1392 12.3105 97.2524 12.1974C97.3655 12.0717 97.4975 12.0088 97.6483 12.0088C97.7112 12.0088 97.7552 12.0465 97.7803 12.122C97.818 12.1848 97.8369 12.2665 97.8369 12.3671C97.8369 12.4299 97.8306 12.5053 97.818 12.5933C97.8054 12.6688 97.7929 12.7379 97.7803 12.8007C97.73 13.0396 97.6797 13.2533 97.6295 13.4418C97.5792 13.6178 97.5352 13.7875 97.4975 13.9509C97.4723 14.1017 97.4598 14.2777 97.4598 14.4788V14.7994C97.4598 14.9754 97.4346 15.1262 97.3844 15.2519C97.3341 15.3776 97.2524 15.4405 97.1392 15.4405C97.0387 15.4405 96.9507 15.3839 96.8753 15.2708C96.8124 15.1451 96.7433 14.9565 96.6679 14.7051C96.5547 14.3029 96.3662 14.0075 96.1022 13.8189C95.8382 13.6178 95.4234 13.5172 94.8578 13.5172H93.5756C93.3368 13.5172 93.1482 13.5612 93.01 13.6492C92.8843 13.7372 92.79 13.932 92.7271 14.2337C92.6769 14.5228 92.6517 14.9754 92.6517 15.5913V23.1145C92.6517 23.5167 92.7648 23.8121 92.9911 24.0007C93.2174 24.1767 93.5756 24.3275 94.0659 24.4532C94.2167 24.4909 94.3361 24.5349 94.4241 24.5852C94.5121 24.6355 94.5561 24.7109 94.5561 24.8114C94.5561 24.8994 94.5121 24.9623 94.4241 25C94.3487 25.0377 94.2481 25.0566 94.1224 25.0566C93.8207 25.0566 93.5191 25.0503 93.2174 25.0377C92.9157 25.0251 92.614 25.0126 92.3123 25C92.0232 24.9874 91.7404 24.9811 91.4638 24.9811C91.1873 24.9811 90.8982 24.9874 90.5965 25C90.3074 25.0126 90.0057 25.0251 89.6915 25.0377C89.3898 25.0629 89.0881 25.0754 88.7864 25.0754ZM98.1673 25.0754C98.0542 25.0754 97.9536 25.0503 97.8656 25C97.7776 24.9623 97.7336 24.9057 97.7336 24.8303C97.7336 24.6418 97.8907 24.5161 98.205 24.4532C98.6827 24.3526 99.0283 24.2144 99.242 24.0384C99.4557 23.8624 99.5626 23.5733 99.5626 23.1711V14.6108C99.5626 14.196 99.4746 13.9006 99.2986 13.7246C99.1226 13.5487 98.7895 13.4104 98.2993 13.3098C97.985 13.247 97.8279 13.115 97.8279 12.9139C97.8279 12.8385 97.8719 12.7819 97.9599 12.7442C98.0479 12.6939 98.1484 12.6688 98.2616 12.6688C98.5632 12.6688 98.8586 12.675 99.1477 12.6876C99.4369 12.7002 99.7134 12.7128 99.9774 12.7253C100.254 12.7379 100.53 12.7442 100.807 12.7442C101.071 12.7442 101.335 12.7379 101.599 12.7253C101.875 12.7128 102.158 12.7002 102.447 12.6876C102.737 12.675 103.032 12.6688 103.334 12.6688C103.459 12.6688 103.56 12.6939 103.635 12.7442C103.711 12.7819 103.748 12.8447 103.748 12.9327C103.748 13.0333 103.704 13.115 103.616 13.1778C103.541 13.2281 103.428 13.2721 103.277 13.3098C102.774 13.4355 102.435 13.5864 102.259 13.7624C102.083 13.9383 101.995 14.2274 101.995 14.6297V23.1522C101.995 23.5419 102.095 23.8247 102.297 24.0007C102.51 24.1767 102.856 24.3275 103.334 24.4532C103.497 24.4909 103.616 24.5349 103.692 24.5852C103.78 24.6355 103.824 24.7109 103.824 24.8114C103.824 24.8994 103.786 24.9623 103.711 25C103.635 25.0377 103.535 25.0566 103.409 25.0566C103.107 25.0566 102.806 25.0503 102.504 25.0377C102.202 25.0251 101.907 25.0126 101.618 25C101.341 24.9874 101.071 24.9811 100.807 24.9811C100.53 24.9811 100.248 24.9874 99.9585 25C99.6694 25.0126 99.374 25.0251 99.0723 25.0377C98.7706 25.0629 98.469 25.0754 98.1673 25.0754ZM110.846 25.264C109.992 25.264 109.174 25.1194 108.395 24.8303C107.616 24.5286 106.924 24.1075 106.321 23.567C105.73 23.0139 105.259 22.3603 104.907 21.6061C104.568 20.8393 104.398 19.9908 104.398 19.0606C104.398 18.2059 104.536 17.3888 104.813 16.6095C105.102 15.8176 105.523 15.1136 106.076 14.4977C106.642 13.8818 107.333 13.3915 108.15 13.027C108.98 12.6625 109.935 12.4802 111.016 12.4802C111.871 12.4802 112.682 12.631 113.448 12.9327C114.228 13.2218 114.919 13.6429 115.522 14.196C116.126 14.7365 116.597 15.3902 116.937 16.157C117.288 16.9112 117.464 17.7534 117.464 18.6835C117.464 19.5257 117.32 20.3428 117.031 21.1347C116.754 21.9266 116.333 22.6305 115.767 23.2465C115.214 23.8624 114.523 24.3526 113.693 24.7172C112.876 25.0817 111.927 25.264 110.846 25.264ZM111.167 24.4343C111.959 24.4343 112.619 24.2332 113.147 23.831C113.687 23.4287 114.089 22.8694 114.353 22.1529C114.63 21.4238 114.768 20.5879 114.768 19.6451C114.768 18.8407 114.686 18.0613 114.523 17.3071C114.36 16.5529 114.108 15.8804 113.769 15.2896C113.429 14.6863 113.002 14.2086 112.487 13.8566C111.984 13.5047 111.381 13.3287 110.677 13.3287C109.885 13.3287 109.218 13.5298 108.678 13.9321C108.15 14.3343 107.754 14.8937 107.49 15.6102C107.226 16.3266 107.094 17.1563 107.094 18.099C107.094 18.9035 107.176 19.6829 107.339 20.4371C107.503 21.1913 107.748 21.8701 108.075 22.4734C108.414 23.0768 108.835 23.5544 109.338 23.9064C109.853 24.2584 110.463 24.4343 111.167 24.4343ZM130.47 25.3394C130.319 25.3394 130.067 25.2451 129.715 25.0566C129.363 24.868 129.005 24.5412 128.641 24.0761C128.427 23.8373 128.163 23.5482 127.849 23.2088C127.547 22.8568 127.208 22.4734 126.831 22.0586C126.466 21.6438 126.083 21.2101 125.68 20.7576C125.278 20.3051 124.876 19.8526 124.474 19.4C124.084 18.9475 123.701 18.5138 123.324 18.099C122.946 17.6842 122.601 17.3071 122.287 16.9677C121.972 16.6158 121.708 16.3141 121.495 16.0627C121.444 15.9998 121.388 15.9495 121.325 15.9118C121.275 15.8616 121.231 15.8364 121.193 15.8364C121.143 15.8364 121.105 15.8804 121.08 15.9684C121.055 16.0564 121.042 16.1381 121.042 16.2135C121.042 16.7917 121.042 17.4768 121.042 18.2687C121.055 19.0606 121.061 19.8651 121.061 20.6822C121.061 21.4992 121.061 22.2534 121.061 22.9448C121.061 23.3345 121.174 23.655 121.4 23.9064C121.627 24.1578 121.985 24.3401 122.475 24.4532C122.626 24.4783 122.752 24.5223 122.852 24.5852C122.965 24.6355 123.022 24.7109 123.022 24.8114C123.022 24.8994 122.972 24.9623 122.871 25C122.77 25.0377 122.657 25.0566 122.532 25.0566C122.192 25.0566 121.922 25.0503 121.721 25.0377C121.52 25.0251 121.337 25.0126 121.174 25C121.011 24.9874 120.803 24.9811 120.552 24.9811C120.288 24.9811 120.049 24.9874 119.835 25C119.634 25.0126 119.452 25.0251 119.289 25.0377C119.125 25.0629 118.968 25.0754 118.817 25.0754C118.691 25.0754 118.578 25.0503 118.478 25C118.377 24.9623 118.327 24.9057 118.327 24.8303C118.327 24.7297 118.371 24.6543 118.459 24.604C118.559 24.5412 118.691 24.4846 118.855 24.4343C119.182 24.3338 119.421 24.1515 119.571 23.8875C119.735 23.611 119.835 23.2842 119.873 22.9071C119.923 22.4294 119.974 21.8072 120.024 21.0404C120.074 20.2611 120.118 19.3875 120.156 18.4196C120.206 17.4517 120.231 16.4523 120.231 15.4216C120.231 14.768 120.062 14.2966 119.722 14.0075C119.395 13.7184 118.981 13.4858 118.478 13.3098C118.39 13.2847 118.277 13.2344 118.138 13.159C118 13.0836 117.931 12.9893 117.931 12.8762C117.931 12.763 117.981 12.6876 118.082 12.6499C118.182 12.6122 118.289 12.5933 118.402 12.5933C118.666 12.5933 118.93 12.5996 119.194 12.6122C119.458 12.6248 119.722 12.6373 119.986 12.6499C120.263 12.6499 120.546 12.6562 120.835 12.6688C121.136 12.6813 121.457 12.6876 121.796 12.6876C121.909 12.6876 121.991 12.7128 122.041 12.763C122.104 12.8007 122.161 12.8573 122.211 12.9327C122.412 13.1716 122.67 13.4732 122.984 13.8378C123.298 14.1897 123.638 14.5857 124.002 15.0256C124.379 15.453 124.769 15.9056 125.171 16.3832C125.586 16.8609 125.995 17.3385 126.397 17.8162C126.812 18.2939 127.208 18.7527 127.585 19.1926C127.962 19.62 128.301 20.016 128.603 20.3805C128.917 20.7325 129.175 21.0216 129.376 21.2478C129.426 21.2981 129.483 21.361 129.546 21.4364C129.621 21.5118 129.684 21.5495 129.734 21.5495C129.835 21.5495 129.891 21.4427 129.904 21.229C129.904 20.9022 129.904 20.4873 129.904 19.9845C129.904 19.4692 129.904 18.9035 129.904 18.2876C129.917 17.6591 129.917 17.018 129.904 16.3644C129.904 15.7107 129.898 15.0822 129.885 14.4788C129.873 14.1646 129.741 13.9195 129.489 13.7435C129.25 13.5549 128.949 13.423 128.584 13.3475C128.433 13.3098 128.289 13.2658 128.15 13.2156C128.025 13.1527 127.962 13.0647 127.962 12.9516C127.962 12.8636 128.025 12.8007 128.15 12.763C128.289 12.7253 128.414 12.7065 128.528 12.7065C128.779 12.7065 128.986 12.7065 129.15 12.7065C129.326 12.7065 129.489 12.7128 129.64 12.7253C129.791 12.7253 129.948 12.7253 130.111 12.7253C130.388 12.7253 130.614 12.7253 130.79 12.7253C130.966 12.7128 131.155 12.7002 131.356 12.6876C131.57 12.675 131.846 12.6688 132.185 12.6688C132.336 12.6688 132.456 12.6939 132.544 12.7442C132.644 12.7819 132.695 12.8385 132.695 12.9139C132.695 13.1024 132.512 13.2344 132.148 13.3098C131.708 13.3978 131.394 13.5172 131.205 13.6681C131.029 13.8189 130.935 14.0703 130.922 14.4223C130.922 14.7365 130.916 15.1388 130.903 15.629C130.903 16.1192 130.897 16.6535 130.884 17.2317C130.872 17.8099 130.853 18.4007 130.828 19.0041C130.815 19.6074 130.803 20.1982 130.79 20.7765C130.79 21.3547 130.79 21.8763 130.79 22.3414C130.79 22.6431 130.803 22.9511 130.828 23.2653C130.853 23.5796 130.878 23.8624 130.903 24.1138C130.941 24.3526 130.96 24.5223 130.96 24.6229C130.96 24.8994 130.916 25.088 130.828 25.1886C130.74 25.2891 130.62 25.3394 130.47 25.3394Z" fill="white"/>
<path d="M63.9645 40.2453C63.3046 40.2453 62.6682 40.1322 62.0554 39.9059C61.4426 39.6797 60.8958 39.3591 60.415 38.9443C59.9342 38.5201 59.5524 38.0157 59.2696 37.4312C58.9962 36.8373 58.8595 36.182 58.8595 35.4656C58.8595 34.7773 59.0056 34.141 59.2979 33.5565C59.5901 32.972 59.9908 32.4629 60.4999 32.0292C61.009 31.5955 61.5888 31.2609 62.2393 31.0252C62.8992 30.7801 63.5921 30.6575 64.318 30.6575C64.6857 30.6575 64.9968 30.6716 65.2514 30.6999C65.5059 30.7282 65.751 30.7706 65.9867 30.8272C66.2318 30.8743 66.5147 30.9403 66.8352 31.0252C66.9766 31.0629 67.0756 31.1194 67.1322 31.1949C67.1982 31.2703 67.2359 31.374 67.2453 31.506C67.2642 31.7228 67.2877 31.9585 67.316 32.213C67.3443 32.4582 67.3631 32.7646 67.3726 33.1322C67.382 33.1982 67.349 33.2548 67.2736 33.3019C67.2076 33.3396 67.1322 33.3491 67.0473 33.3302C66.9719 33.3114 66.92 33.2501 66.8918 33.1464C66.7975 32.7881 66.6891 32.4817 66.5665 32.2272C66.444 31.9632 66.2601 31.7464 66.015 31.5767C65.7793 31.4164 65.4918 31.2986 65.1524 31.2232C64.8224 31.1383 64.4642 31.0959 64.0776 31.0959C63.5308 31.0959 63.0218 31.209 62.5504 31.4353C62.0884 31.6521 61.6878 31.9538 61.3484 32.3403C61.0184 32.7174 60.7591 33.1464 60.5706 33.6272C60.382 34.108 60.2878 34.6076 60.2878 35.1262C60.2878 35.7012 60.3773 36.2669 60.5564 36.8231C60.745 37.3793 61.009 37.8837 61.3484 38.3362C61.6972 38.7793 62.1073 39.1376 62.5787 39.411C63.0595 39.675 63.5921 39.8069 64.1766 39.8069C64.8554 39.8069 65.4164 39.6514 65.8594 39.3403C66.3025 39.0292 66.6796 38.5955 66.9908 38.0393C67.0567 37.9167 67.151 37.8554 67.2736 37.8554C67.4056 37.8554 67.4716 37.9309 67.4716 38.0817C67.4716 38.1571 67.4527 38.2797 67.415 38.4494C67.3773 38.6096 67.3254 38.7841 67.2594 38.9726C67.2029 39.1517 67.1463 39.312 67.0897 39.4534C67.0237 39.5854 66.9672 39.6702 66.92 39.708C66.8823 39.7457 66.7881 39.7881 66.6372 39.8352C66.2884 39.9766 65.8689 40.0803 65.3786 40.1463C64.8978 40.2123 64.4265 40.2453 63.9645 40.2453ZM73.5801 40.2312C72.9578 40.2312 72.3639 40.1228 71.7983 39.9059C71.2326 39.6797 70.7329 39.3638 70.2993 38.9585C69.8656 38.5436 69.5215 38.0534 69.267 37.4878C69.0124 36.9127 68.8851 36.2763 68.8851 35.5787C68.8851 34.9376 68.9888 34.3248 69.1962 33.7403C69.4037 33.1464 69.7101 32.6184 70.1154 32.1565C70.5208 31.6945 71.0252 31.3269 71.6286 31.0535C72.2319 30.7801 72.9248 30.6434 73.7073 30.6434C74.3296 30.6434 74.9235 30.7565 75.4891 30.9827C76.0548 31.1996 76.5545 31.5154 76.9881 31.9302C77.4218 32.3356 77.7659 32.8258 78.0204 33.4009C78.275 33.9666 78.4023 34.5982 78.4023 35.2959C78.4023 35.9275 78.2986 36.5403 78.0911 37.1342C77.8837 37.7282 77.5773 38.2561 77.172 38.7181C76.7666 39.18 76.2622 39.5477 75.6588 39.8211C75.0555 40.0945 74.3625 40.2312 73.5801 40.2312ZM73.7922 39.6655C74.5181 39.6655 75.1215 39.5147 75.6023 39.213C76.0831 38.9019 76.4413 38.4729 76.677 37.9261C76.9221 37.3699 77.0447 36.7241 77.0447 35.9888C77.0447 35.3383 76.9693 34.7255 76.8184 34.1504C76.6676 33.5753 76.4413 33.071 76.1396 32.6373C75.8474 32.1942 75.4797 31.8501 75.0366 31.605C74.5935 31.3599 74.075 31.2373 73.4811 31.2373C72.774 31.2373 72.1801 31.3881 71.6993 31.6898C71.2185 31.9915 70.8555 32.4157 70.6104 32.9625C70.3653 33.4999 70.2427 34.1363 70.2427 34.8716C70.2427 35.5315 70.3134 36.149 70.4548 36.7241C70.6057 37.2992 70.8272 37.8083 71.1195 38.2514C71.4212 38.6945 71.7935 39.0433 72.2366 39.2979C72.6797 39.543 73.1982 39.6655 73.7922 39.6655ZM88.4807 40.2736C88.3959 40.2736 88.2262 40.2029 87.9716 40.0615C87.7265 39.9201 87.4908 39.6938 87.2646 39.3827C87.2269 39.3356 87.109 39.1942 86.911 38.9585C86.7225 38.7228 86.4774 38.4305 86.1757 38.0817C85.8834 37.7235 85.5629 37.3369 85.2141 36.9221C84.8653 36.5073 84.5164 36.0925 84.1676 35.6777C83.8188 35.2629 83.4935 34.881 83.1919 34.5322C82.8902 34.174 82.6356 33.877 82.4282 33.6413C82.2303 33.3962 82.1077 33.2454 82.0606 33.1888C81.9946 33.1039 81.938 33.0474 81.8909 33.0191C81.8437 32.9814 81.8013 32.9625 81.7636 32.9625C81.7164 32.9625 81.6835 33.0002 81.6646 33.0757C81.6457 33.1417 81.6363 33.2029 81.6363 33.2595C81.6269 33.7215 81.6175 34.2541 81.608 34.8575C81.5986 35.4608 81.5892 36.0831 81.5797 36.7241C81.5703 37.3652 81.5656 37.978 81.5656 38.5625C81.5656 38.817 81.6269 39.0527 81.7494 39.2696C81.8814 39.4864 82.1218 39.6278 82.4707 39.6938C82.6309 39.7221 82.7488 39.7551 82.8242 39.7928C82.8996 39.8305 82.9373 39.8824 82.9373 39.9484C82.9373 40.0049 82.8996 40.0426 82.8242 40.0615C82.7488 40.0898 82.6498 40.1039 82.5272 40.1039C82.2727 40.1039 82.0794 40.0945 81.9474 40.0756C81.8249 40.0662 81.7117 40.0568 81.608 40.0473C81.5138 40.0379 81.3771 40.0332 81.1979 40.0332C81.0282 40.0332 80.8963 40.0379 80.802 40.0473C80.7077 40.0568 80.5993 40.0662 80.4767 40.0756C80.3542 40.0945 80.1656 40.1039 79.9111 40.1039C79.7885 40.1039 79.6895 40.0898 79.6141 40.0615C79.5387 40.0426 79.501 40.0049 79.501 39.9484C79.501 39.8824 79.5387 39.8305 79.6141 39.7928C79.6895 39.7551 79.8074 39.7174 79.9676 39.6797C80.241 39.6042 80.439 39.4675 80.5616 39.2696C80.6841 39.0622 80.7596 38.8123 80.7878 38.5201C80.8255 38.1618 80.8633 37.6905 80.901 37.1059C80.9387 36.512 80.9717 35.8521 81 35.1262C81.0282 34.3908 81.0424 33.6366 81.0424 32.8635C81.0424 32.3639 80.9104 32.0056 80.6464 31.7888C80.3919 31.572 80.0572 31.3976 79.6424 31.2656C79.6047 31.2467 79.5198 31.209 79.3878 31.1524C79.2653 31.0865 79.204 31.011 79.204 30.9262C79.204 30.8413 79.2464 30.7895 79.3313 30.7706C79.4161 30.7423 79.4821 30.7282 79.5293 30.7282C79.8027 30.7376 80.0242 30.7471 80.1939 30.7565C80.3636 30.7565 80.5144 30.7612 80.6464 30.7706C80.7784 30.7801 80.9245 30.7895 81.0848 30.7989C81.2451 30.7989 81.4525 30.7989 81.707 30.7989C81.7919 30.7989 81.8579 30.8225 81.905 30.8696C81.9521 30.9168 81.9993 30.9733 82.0464 31.0393C82.0841 31.0959 82.2067 31.2561 82.4141 31.5201C82.6309 31.7747 82.8949 32.0999 83.206 32.4959C83.5265 32.8824 83.8754 33.3066 84.2525 33.7686C84.6296 34.2211 85.0067 34.6784 85.3838 35.1403C85.7609 35.5928 86.1097 36.0171 86.4302 36.413C86.7508 36.7996 87.0147 37.1201 87.2221 37.3746C87.439 37.6292 87.5662 37.78 87.604 37.8272C87.6417 37.8649 87.6935 37.9214 87.7595 37.9969C87.8349 38.0723 87.9009 38.11 87.9575 38.11C88.0423 38.11 88.0895 38.011 88.0989 37.813C88.0989 37.681 88.0989 37.4312 88.0989 37.0635C88.1083 36.6864 88.113 36.2339 88.113 35.706C88.1225 35.1686 88.1272 34.5888 88.1272 33.9666C88.1272 33.3444 88.1272 32.708 88.1272 32.0575C88.1178 31.8689 88.0188 31.6992 87.8302 31.5484C87.6417 31.3976 87.4673 31.308 87.307 31.2797C87.1467 31.2514 87.0006 31.2137 86.8686 31.1666C86.7366 31.1194 86.6706 31.0629 86.6706 30.9969C86.6706 30.9403 86.7366 30.9026 86.8686 30.8838C87.0006 30.8555 87.1279 30.8413 87.2504 30.8413C87.3447 30.8413 87.4343 30.8413 87.5191 30.8413C87.6134 30.8413 87.7029 30.8413 87.7878 30.8413C87.8821 30.8413 87.9716 30.8413 88.0565 30.8413C88.2827 30.8413 88.4619 30.8413 88.5939 30.8413C88.7258 30.8319 88.8673 30.8225 89.0181 30.8131C89.1784 30.8036 89.3999 30.7989 89.6827 30.7989C89.8053 30.7989 89.9043 30.8131 89.9797 30.8413C90.0551 30.8602 90.0928 30.8979 90.0928 30.9545C90.0928 31.0865 89.9373 31.1807 89.6262 31.2373C89.2773 31.3033 89.0464 31.3881 88.9332 31.4918C88.8201 31.5955 88.7541 31.7652 88.7353 32.0009C88.7353 32.0481 88.7306 32.2319 88.7211 32.5524C88.7211 32.873 88.7211 33.2784 88.7211 33.7686C88.7211 34.2588 88.7164 34.7868 88.707 35.3524C88.707 35.9181 88.707 36.4837 88.707 37.0494C88.707 37.6056 88.707 38.1053 88.707 38.5484C88.707 38.7746 88.7117 38.982 88.7211 39.1706C88.74 39.3497 88.7541 39.5053 88.7635 39.6372C88.773 39.7598 88.7777 39.8541 88.7777 39.9201C88.7777 40.0709 88.7447 40.1652 88.6787 40.2029C88.6221 40.25 88.5561 40.2736 88.4807 40.2736ZM95.9897 40.2453C95.3297 40.2453 94.6934 40.1322 94.0806 39.9059C93.4678 39.6797 92.921 39.3591 92.4402 38.9443C91.9594 38.5201 91.5776 38.0157 91.2947 37.4312C91.0213 36.8373 90.8846 36.182 90.8846 35.4656C90.8846 34.7773 91.0308 34.141 91.323 33.5565C91.6153 32.972 92.0159 32.4629 92.525 32.0292C93.0341 31.5955 93.6139 31.2609 94.2644 31.0252C94.9243 30.7801 95.6173 30.6575 96.3432 30.6575C96.7109 30.6575 97.022 30.6716 97.2765 30.6999C97.5311 30.7282 97.7762 30.7706 98.0119 30.8272C98.257 30.8743 98.5398 30.9403 98.8603 31.0252C99.0018 31.0629 99.1008 31.1194 99.1573 31.1949C99.2233 31.2703 99.261 31.374 99.2704 31.506C99.2893 31.7228 99.3129 31.9585 99.3412 32.213C99.3694 32.4582 99.3883 32.7646 99.3977 33.1322C99.4071 33.1982 99.3742 33.2548 99.2987 33.3019C99.2327 33.3396 99.1573 33.3491 99.0725 33.3302C98.997 33.3114 98.9452 33.2501 98.9169 33.1464C98.8226 32.7881 98.7142 32.4817 98.5917 32.2272C98.4691 31.9632 98.2853 31.7464 98.0402 31.5767C97.8045 31.4164 97.5169 31.2986 97.1775 31.2232C96.8476 31.1383 96.4893 31.0959 96.1028 31.0959C95.556 31.0959 95.0469 31.209 94.5755 31.4353C94.1136 31.6521 93.7129 31.9538 93.3735 32.3403C93.0435 32.7174 92.7843 33.1464 92.5957 33.6272C92.4072 34.108 92.3129 34.6076 92.3129 35.1262C92.3129 35.7012 92.4025 36.2669 92.5816 36.8231C92.7701 37.3793 93.0341 37.8837 93.3735 38.3362C93.7223 38.7793 94.1324 39.1376 94.6038 39.411C95.0846 39.675 95.6173 39.8069 96.2018 39.8069C96.8806 39.8069 97.4415 39.6514 97.8846 39.3403C98.3277 39.0292 98.7048 38.5955 99.0159 38.0393C99.0819 37.9167 99.1762 37.8554 99.2987 37.8554C99.4307 37.8554 99.4967 37.9309 99.4967 38.0817C99.4967 38.1571 99.4779 38.2797 99.4401 38.4494C99.4024 38.6096 99.3506 38.7841 99.2846 38.9726C99.228 39.1517 99.1715 39.312 99.1149 39.4534C99.0489 39.5854 98.9923 39.6702 98.9452 39.708C98.9075 39.7457 98.8132 39.7881 98.6624 39.8352C98.3136 39.9766 97.894 40.0803 97.4038 40.1463C96.923 40.2123 96.4516 40.2453 95.9897 40.2453ZM100.953 40.1039C100.83 40.1039 100.731 40.0898 100.656 40.0615C100.58 40.0426 100.543 40.0049 100.543 39.9484C100.543 39.8352 100.698 39.7504 101.009 39.6938C101.368 39.6278 101.641 39.5194 101.829 39.3686C102.018 39.2177 102.112 38.9773 102.112 38.6474V32.2555C102.112 31.9255 102.042 31.6898 101.9 31.5484C101.768 31.407 101.523 31.3033 101.165 31.2373C100.854 31.1807 100.698 31.0865 100.698 30.9545C100.698 30.8979 100.736 30.8602 100.811 30.8413C100.887 30.8131 100.986 30.7989 101.108 30.7989C101.363 30.7989 101.57 30.8036 101.73 30.8131C101.9 30.8225 102.06 30.8319 102.211 30.8413C102.362 30.8413 102.546 30.8413 102.763 30.8413C102.97 30.8413 103.14 30.8413 103.272 30.8413C103.404 30.8319 103.545 30.8225 103.696 30.8131C103.847 30.8036 104.05 30.7989 104.304 30.7989C104.427 30.7989 104.526 30.8131 104.601 30.8413C104.677 30.8602 104.714 30.8979 104.714 30.9545C104.714 31.0205 104.677 31.077 104.601 31.1242C104.526 31.1713 104.408 31.209 104.248 31.2373C103.899 31.3033 103.644 31.407 103.484 31.5484C103.324 31.6898 103.244 31.9255 103.244 32.2555V38.6474C103.244 38.9773 103.343 39.2177 103.541 39.3686C103.739 39.5194 104.012 39.6278 104.361 39.6938C104.521 39.7221 104.639 39.7551 104.714 39.7928C104.79 39.8305 104.827 39.8824 104.827 39.9484C104.827 40.0049 104.79 40.0426 104.714 40.0615C104.639 40.0898 104.54 40.1039 104.417 40.1039C104.163 40.1039 103.951 40.0945 103.781 40.0756C103.621 40.0662 103.465 40.0568 103.314 40.0473C103.163 40.0379 102.98 40.0332 102.763 40.0332C102.527 40.0332 102.32 40.0379 102.141 40.0473C101.971 40.0568 101.792 40.0662 101.603 40.0756C101.424 40.0945 101.207 40.1039 100.953 40.1039ZM106.013 40.1039C105.891 40.1039 105.792 40.0898 105.716 40.0615C105.641 40.0426 105.603 40.0049 105.603 39.9484C105.603 39.8352 105.759 39.7504 106.07 39.6938C106.428 39.6278 106.692 39.5194 106.862 39.3686C107.031 39.2177 107.116 38.9726 107.116 38.6332V32.2696C107.116 31.9302 107.045 31.6898 106.904 31.5484C106.772 31.407 106.527 31.3033 106.169 31.2373C106.008 31.209 105.891 31.1713 105.815 31.1242C105.74 31.077 105.702 31.0205 105.702 30.9545C105.702 30.8979 105.74 30.8602 105.815 30.8413C105.891 30.8131 105.99 30.7989 106.112 30.7989C106.47 30.7989 106.772 30.8036 107.017 30.8131C107.272 30.8225 107.517 30.8319 107.752 30.8413C107.998 30.8413 108.285 30.8413 108.615 30.8413C108.926 30.8413 109.251 30.8413 109.591 30.8413C109.94 30.8319 110.26 30.8272 110.552 30.8272C110.873 30.8178 111.142 30.8131 111.359 30.8131C111.585 30.8036 111.717 30.7989 111.754 30.7989C111.802 30.7989 111.853 30.8083 111.91 30.8272C111.967 30.846 112 30.879 112.009 30.9262C112.056 31.1902 112.103 31.4541 112.15 31.7181C112.198 31.9726 112.221 32.1942 112.221 32.3827C112.221 32.4676 112.198 32.5242 112.15 32.5524C112.113 32.5807 112.07 32.5949 112.023 32.5949C111.976 32.5949 111.943 32.5854 111.924 32.5666C111.905 32.5383 111.886 32.5006 111.868 32.4534C111.82 32.2932 111.773 32.1423 111.726 32.0009C111.679 31.8501 111.622 31.7417 111.557 31.6757C111.425 31.5248 111.278 31.4258 111.118 31.3787C110.958 31.3221 110.788 31.2939 110.609 31.2939H108.757C108.681 31.2939 108.577 31.3363 108.445 31.4211C108.313 31.506 108.247 31.6144 108.247 31.7464V34.7443C108.247 34.8292 108.271 34.9046 108.318 34.9706C108.375 35.0272 108.436 35.0555 108.502 35.0555H109.902C110.175 35.0555 110.364 35.0083 110.468 34.914C110.571 34.8103 110.656 34.6265 110.722 34.3625C110.779 34.1551 110.864 34.0514 110.977 34.0514C111.014 34.0514 111.052 34.0703 111.09 34.108C111.137 34.1457 111.161 34.2023 111.161 34.2777C111.161 34.3154 111.156 34.4002 111.146 34.5322C111.146 34.6642 111.142 34.8009 111.132 34.9423C111.123 35.0837 111.118 35.1922 111.118 35.2676C111.118 35.3618 111.118 35.4891 111.118 35.6494C111.128 35.8002 111.132 35.9464 111.132 36.0878C111.142 36.2292 111.146 36.3187 111.146 36.3565C111.146 36.4224 111.137 36.479 111.118 36.5262C111.109 36.5733 111.076 36.5969 111.019 36.5969C110.878 36.5969 110.769 36.446 110.694 36.1443C110.637 35.9275 110.562 35.7672 110.468 35.6635C110.373 35.5598 110.232 35.508 110.043 35.508H108.728C108.568 35.508 108.445 35.5315 108.361 35.5787C108.285 35.6164 108.247 35.7154 108.247 35.8757V38.5908C108.247 38.949 108.323 39.1989 108.474 39.3403C108.625 39.4723 108.86 39.5383 109.181 39.5383H110.227C110.529 39.5383 110.779 39.5241 110.977 39.4958C111.184 39.4581 111.363 39.3921 111.514 39.2979C111.665 39.1942 111.797 39.0575 111.91 38.8878C112.033 38.7181 112.169 38.4918 112.32 38.209C112.348 38.1524 112.381 38.1053 112.419 38.0676C112.457 38.0298 112.499 38.0157 112.546 38.0251C112.594 38.0346 112.631 38.0581 112.66 38.0958C112.688 38.1241 112.702 38.1665 112.702 38.2231C112.702 38.308 112.678 38.4588 112.631 38.6756C112.584 38.883 112.523 39.0999 112.447 39.3261C112.381 39.5524 112.32 39.7315 112.264 39.8635C112.235 39.9295 112.207 39.9861 112.179 40.0332C112.16 40.0803 112.122 40.1039 112.066 40.1039C111.613 40.1039 111.194 40.0992 110.807 40.0898C110.42 40.0803 110.053 40.0709 109.704 40.0615C109.355 40.0521 109.011 40.0426 108.672 40.0332C108.342 40.0238 107.998 40.0191 107.639 40.0191C107.432 40.0191 107.253 40.0238 107.102 40.0332C106.951 40.0521 106.796 40.0662 106.635 40.0756C106.475 40.0945 106.268 40.1039 106.013 40.1039ZM122.07 40.3302C121.806 40.3302 121.556 40.3066 121.32 40.2595C121.085 40.2218 120.868 40.1463 120.67 40.0332C120.472 39.9201 120.288 39.7645 120.118 39.5665C119.892 39.2837 119.675 39.015 119.468 38.7605C119.261 38.4965 119.039 38.1948 118.803 37.8554C118.577 37.516 118.299 37.0824 117.969 36.5544C117.828 36.3187 117.625 36.1349 117.361 36.0029C117.153 35.8992 116.946 35.8285 116.739 35.7908C116.541 35.7437 116.376 35.7154 116.244 35.706C116.168 35.6965 116.112 35.7201 116.074 35.7767C116.046 35.8332 116.032 35.9039 116.032 35.9888V38.4777C116.032 38.7793 116.102 39.0433 116.244 39.2696C116.385 39.4864 116.63 39.6278 116.979 39.6938C117.139 39.7221 117.257 39.7551 117.333 39.7928C117.408 39.8305 117.446 39.8824 117.446 39.9484C117.446 40.0049 117.408 40.0426 117.333 40.0615C117.257 40.0898 117.158 40.1039 117.036 40.1039C116.781 40.1039 116.583 40.0945 116.442 40.0756C116.31 40.0568 116.187 40.0426 116.074 40.0332C115.97 40.0143 115.829 40.0049 115.65 40.0049C115.414 40.0049 115.202 40.0143 115.013 40.0332C114.834 40.0426 114.65 40.0568 114.462 40.0756C114.283 40.0945 114.066 40.1039 113.811 40.1039C113.689 40.1039 113.59 40.0898 113.514 40.0615C113.439 40.0426 113.401 40.0049 113.401 39.9484C113.401 39.8352 113.557 39.7504 113.868 39.6938C114.226 39.6278 114.485 39.5194 114.646 39.3686C114.815 39.2177 114.9 38.9679 114.9 38.6191V32.5949C114.9 32.2366 114.881 31.9679 114.844 31.7888C114.815 31.6003 114.74 31.4683 114.617 31.3928C114.504 31.3174 114.311 31.2656 114.038 31.2373C113.877 31.2184 113.76 31.1854 113.684 31.1383C113.609 31.0817 113.571 31.0205 113.571 30.9545C113.571 30.8979 113.609 30.8602 113.684 30.8413C113.76 30.8131 113.859 30.7989 113.981 30.7989C114.236 30.7989 114.424 30.7989 114.547 30.7989C114.679 30.7989 114.801 30.8036 114.914 30.8131C115.028 30.8131 115.178 30.8131 115.367 30.8131C115.546 30.8131 115.706 30.8083 115.848 30.7989C115.989 30.7801 116.145 30.7659 116.314 30.7565C116.494 30.7471 116.72 30.7423 116.993 30.7423C118.03 30.7423 118.817 30.9356 119.355 31.3221C119.902 31.7087 120.175 32.2885 120.175 33.0615C120.175 33.4858 120.09 33.8534 119.92 34.1645C119.751 34.4662 119.539 34.7208 119.284 34.9282C119.03 35.1356 118.77 35.3053 118.506 35.4373C118.469 35.4467 118.45 35.4703 118.45 35.508C118.459 35.5363 118.478 35.574 118.506 35.6211C118.799 36.0642 119.077 36.4837 119.341 36.8797C119.614 37.2756 119.911 37.6622 120.232 38.0393C120.552 38.4164 120.934 38.8076 121.377 39.213C121.622 39.4298 121.872 39.5618 122.126 39.609C122.381 39.6561 122.673 39.6797 123.003 39.6797C123.145 39.6797 123.215 39.7315 123.215 39.8352C123.215 39.9766 123.145 40.0803 123.003 40.1463C122.862 40.2218 122.702 40.2689 122.522 40.2877C122.343 40.316 122.192 40.3302 122.07 40.3302ZM116.781 35.3807C117.215 35.3807 117.587 35.2817 117.898 35.0837C118.219 34.8858 118.464 34.6265 118.634 34.306C118.813 33.9854 118.902 33.646 118.902 33.2878C118.902 32.9013 118.85 32.5477 118.747 32.2272C118.652 31.9066 118.454 31.6521 118.153 31.4636C117.861 31.2656 117.417 31.1666 116.823 31.1666C116.522 31.1666 116.324 31.2656 116.23 31.4636C116.135 31.6521 116.079 31.9915 116.06 32.4817C116.05 32.7174 116.041 33.038 116.032 33.4433C116.032 33.8393 116.032 34.3201 116.032 34.8858C116.032 35.1214 116.098 35.2629 116.23 35.31C116.362 35.3571 116.545 35.3807 116.781 35.3807ZM128.687 40.2312C128.036 40.2312 127.414 40.1181 126.82 39.8918C126.235 39.6561 125.712 39.3309 125.25 38.916C124.798 38.5012 124.439 38.0157 124.175 37.4595C123.911 36.8938 123.779 36.2857 123.779 35.6352C123.779 34.9376 123.916 34.2871 124.19 33.6837C124.463 33.0804 124.84 32.5524 125.321 32.0999C125.802 31.6474 126.353 31.2939 126.975 31.0393C127.607 30.7848 128.276 30.6575 128.983 30.6575C129.144 30.6575 129.361 30.6764 129.634 30.7141C129.917 30.7423 130.204 30.7801 130.497 30.8272C130.798 30.8743 131.067 30.9262 131.303 30.9827C131.548 31.0299 131.717 31.077 131.812 31.1242C131.859 31.143 131.887 31.1666 131.897 31.1949C131.915 31.2137 131.93 31.2467 131.939 31.2939C131.977 31.5673 132.01 31.8407 132.038 32.1141C132.066 32.378 132.08 32.6043 132.08 32.7928C132.08 32.8588 132.057 32.9248 132.01 32.9908C131.972 33.0474 131.925 33.0757 131.868 33.0757C131.774 33.0757 131.703 33.0332 131.656 32.9484C131.609 32.8635 131.571 32.7787 131.543 32.6939C131.487 32.543 131.425 32.4157 131.359 32.312C131.303 32.1989 131.218 32.0763 131.105 31.9444C131.048 31.8689 130.926 31.7747 130.737 31.6615C130.558 31.539 130.313 31.4306 130.002 31.3363C129.691 31.242 129.309 31.1949 128.856 31.1949C128.309 31.1949 127.81 31.3127 127.357 31.5484C126.905 31.7747 126.513 32.0905 126.184 32.4959C125.863 32.8918 125.613 33.3444 125.434 33.8534C125.264 34.3625 125.179 34.8952 125.179 35.4514C125.179 36.1208 125.283 36.7194 125.491 37.2474C125.698 37.7753 125.976 38.2231 126.325 38.5908C126.674 38.9585 127.07 39.2366 127.513 39.4251C127.956 39.6137 128.413 39.708 128.885 39.708C129.431 39.708 129.832 39.642 130.087 39.51C130.35 39.378 130.525 39.2696 130.61 39.1847C130.713 39.081 130.808 38.9349 130.893 38.7463C130.987 38.5578 131.034 38.341 131.034 38.0958C131.034 38.011 131.034 37.9214 131.034 37.8272C131.043 37.7329 131.048 37.6386 131.048 37.5443C131.058 37.4501 131.062 37.3605 131.062 37.2756C131.062 37.1719 131.058 37.0871 131.048 37.0211C131.039 36.9457 131.02 36.8891 130.992 36.8514C130.916 36.7477 130.784 36.6629 130.596 36.5969C130.407 36.5309 130.219 36.4837 130.03 36.4554C129.841 36.4272 129.7 36.413 129.606 36.413C129.568 36.413 129.511 36.3895 129.436 36.3423C129.361 36.2952 129.323 36.2386 129.323 36.1726C129.323 36.0972 129.361 36.0406 129.436 36.0029C129.511 35.9558 129.568 35.9322 129.606 35.9322C129.841 35.9322 130.044 35.9369 130.214 35.9464C130.383 35.9558 130.558 35.9652 130.737 35.9746C130.916 35.9841 131.133 35.9888 131.388 35.9888C131.633 35.9888 131.84 35.9794 132.01 35.9605C132.179 35.9416 132.392 35.9322 132.646 35.9322C132.684 35.9322 132.74 35.9464 132.816 35.9746C132.901 36.0029 132.943 36.0642 132.943 36.1585C132.943 36.2245 132.901 36.281 132.816 36.3282C132.74 36.3753 132.684 36.4036 132.646 36.413C132.439 36.4696 132.293 36.5544 132.208 36.6676C132.132 36.7713 132.08 36.9174 132.052 37.1059C132.024 37.3134 132.005 37.4972 131.996 37.6575C131.986 37.8177 131.981 37.9874 131.981 38.1665V38.5484C131.981 38.5955 131.991 38.6332 132.01 38.6615C132.029 38.6898 132.047 38.7275 132.066 38.7746C132.095 38.8218 132.132 38.8642 132.179 38.9019C132.227 38.9396 132.25 38.9773 132.25 39.015C132.25 39.0527 132.241 39.1046 132.222 39.1706C132.212 39.2271 132.156 39.2649 132.052 39.2837C131.986 39.2931 131.854 39.3497 131.656 39.4534C131.468 39.5477 131.227 39.6561 130.935 39.7787C130.643 39.9012 130.308 40.0049 129.931 40.0898C129.554 40.184 129.139 40.2312 128.687 40.2312ZM134.379 40.1039C134.256 40.1039 134.157 40.0898 134.082 40.0615C134.006 40.0426 133.969 40.0049 133.969 39.9484C133.969 39.8352 134.124 39.7504 134.435 39.6938C134.793 39.6278 135.057 39.5194 135.227 39.3686C135.397 39.2177 135.482 38.9726 135.482 38.6332V32.2696C135.482 31.9302 135.411 31.6898 135.27 31.5484C135.138 31.407 134.892 31.3033 134.534 31.2373C134.374 31.209 134.256 31.1713 134.181 31.1242C134.105 31.077 134.068 31.0205 134.068 30.9545C134.068 30.8979 134.105 30.8602 134.181 30.8413C134.256 30.8131 134.355 30.7989 134.478 30.7989C134.836 30.7989 135.138 30.8036 135.383 30.8131C135.637 30.8225 135.882 30.8319 136.118 30.8413C136.363 30.8413 136.651 30.8413 136.981 30.8413C137.292 30.8413 137.617 30.8413 137.956 30.8413C138.305 30.8319 138.626 30.8272 138.918 30.8272C139.239 30.8178 139.507 30.8131 139.724 30.8131C139.95 30.8036 140.082 30.7989 140.12 30.7989C140.167 30.7989 140.219 30.8083 140.276 30.8272C140.332 30.846 140.365 30.879 140.375 30.9262C140.422 31.1902 140.469 31.4541 140.516 31.7181C140.563 31.9726 140.587 32.1942 140.587 32.3827C140.587 32.4676 140.563 32.5242 140.516 32.5524C140.478 32.5807 140.436 32.5949 140.389 32.5949C140.342 32.5949 140.309 32.5854 140.29 32.5666C140.271 32.5383 140.252 32.5006 140.233 32.4534C140.186 32.2932 140.139 32.1423 140.092 32.0009C140.045 31.8501 139.988 31.7417 139.922 31.6757C139.79 31.5248 139.644 31.4258 139.484 31.3787C139.323 31.3221 139.154 31.2939 138.975 31.2939H137.122C137.047 31.2939 136.943 31.3363 136.811 31.4211C136.679 31.506 136.613 31.6144 136.613 31.7464V34.7443C136.613 34.8292 136.637 34.9046 136.684 34.9706C136.74 35.0272 136.802 35.0555 136.868 35.0555H138.267C138.541 35.0555 138.729 35.0083 138.833 34.914C138.937 34.8103 139.022 34.6265 139.088 34.3625C139.144 34.1551 139.229 34.0514 139.342 34.0514C139.38 34.0514 139.418 34.0703 139.455 34.108C139.503 34.1457 139.526 34.2023 139.526 34.2777C139.526 34.3154 139.521 34.4002 139.512 34.5322C139.512 34.6642 139.507 34.8009 139.498 34.9423C139.488 35.0837 139.484 35.1922 139.484 35.2676C139.484 35.3618 139.484 35.4891 139.484 35.6494C139.493 35.8002 139.498 35.9464 139.498 36.0878C139.507 36.2292 139.512 36.3187 139.512 36.3565C139.512 36.4224 139.503 36.479 139.484 36.5262C139.474 36.5733 139.441 36.5969 139.385 36.5969C139.243 36.5969 139.135 36.446 139.059 36.1443C139.003 35.9275 138.927 35.7672 138.833 35.6635C138.739 35.5598 138.597 35.508 138.409 35.508H137.094C136.933 35.508 136.811 35.5315 136.726 35.5787C136.651 35.6164 136.613 35.7154 136.613 35.8757V38.5908C136.613 38.949 136.688 39.1989 136.839 39.3403C136.99 39.4723 137.226 39.5383 137.546 39.5383H138.593C138.894 39.5383 139.144 39.5241 139.342 39.4958C139.55 39.4581 139.729 39.3921 139.88 39.2979C140.03 39.1942 140.162 39.0575 140.276 38.8878C140.398 38.7181 140.535 38.4918 140.686 38.209C140.714 38.1524 140.747 38.1053 140.785 38.0676C140.822 38.0298 140.865 38.0157 140.912 38.0251C140.959 38.0346 140.997 38.0581 141.025 38.0958C141.053 38.1241 141.067 38.1665 141.067 38.2231C141.067 38.308 141.044 38.4588 140.997 38.6756C140.95 38.883 140.888 39.0999 140.813 39.3261C140.747 39.5524 140.686 39.7315 140.629 39.8635C140.601 39.9295 140.573 39.9861 140.544 40.0332C140.525 40.0803 140.488 40.1039 140.431 40.1039C139.979 40.1039 139.559 40.0992 139.173 40.0898C138.786 40.0803 138.418 40.0709 138.07 40.0615C137.721 40.0521 137.377 40.0426 137.037 40.0332C136.707 40.0238 136.363 40.0191 136.005 40.0191C135.797 40.0191 135.618 40.0238 135.468 40.0332C135.317 40.0521 135.161 40.0662 135.001 40.0756C134.841 40.0945 134.633 40.1039 134.379 40.1039Z" fill="white" fill-opacity="0.59"/>
<path d="M141.614 25.264C140.872 25.264 140.206 25.1006 139.615 24.7737C139.024 24.4343 138.553 23.9693 138.201 23.3785C137.849 22.7877 137.673 22.1215 137.673 21.3798C137.673 20.8016 137.786 20.2485 138.013 19.7206C138.239 19.1926 138.547 18.7212 138.936 18.3064C139.326 17.8916 139.785 17.5648 140.313 17.326C140.841 17.0746 141.406 16.9489 142.01 16.9489C142.777 16.9489 143.462 17.1311 144.065 17.4957C144.681 17.8476 145.171 18.319 145.536 18.9098C145.9 19.5006 146.083 20.148 146.083 20.8519C146.083 21.6312 145.913 22.3603 145.573 23.0391C145.247 23.7053 144.75 24.2458 144.084 24.6606C143.43 25.0629 142.607 25.264 141.614 25.264ZM141.991 24.5286C142.305 24.5286 142.582 24.4658 142.821 24.3401C143.072 24.2144 143.273 24.0195 143.424 23.7556C143.575 23.4916 143.675 23.1459 143.726 22.7185C143.788 22.2786 143.82 21.8072 143.82 21.3044C143.82 20.6382 143.732 20.0348 143.556 19.4943C143.38 18.9538 143.135 18.5201 142.821 18.1933C142.506 17.8665 142.136 17.7031 141.708 17.7031C141.469 17.7031 141.249 17.7471 141.048 17.8351C140.86 17.9105 140.684 18.0425 140.52 18.231C140.294 18.495 140.137 18.8595 140.049 19.3246C139.973 19.7771 139.936 20.3051 139.936 20.9084C139.936 21.5118 140.024 22.09 140.2 22.6431C140.388 23.1962 140.633 23.6487 140.935 24.0007C141.249 24.3526 141.601 24.5286 141.991 24.5286ZM147.006 25.0566C146.906 25.0566 146.818 25.0377 146.742 25C146.667 24.9497 146.629 24.8869 146.629 24.8114C146.629 24.7109 146.661 24.6355 146.724 24.5852C146.799 24.5349 146.893 24.4972 147.006 24.4721C147.333 24.3715 147.547 24.2709 147.648 24.1704C147.761 24.0698 147.817 23.9064 147.817 23.6801V18.3441C147.691 18.3441 147.547 18.3441 147.384 18.3441C147.22 18.3316 147.038 18.319 146.837 18.3064C146.774 18.2939 146.711 18.231 146.648 18.1179C146.598 18.0048 146.573 17.9042 146.573 17.8162C146.573 17.7785 146.592 17.7471 146.629 17.7219C146.667 17.6968 146.698 17.6779 146.724 17.6654C146.912 17.5774 147.088 17.4957 147.252 17.4202C147.428 17.3448 147.616 17.2631 147.817 17.1751C147.842 16.1318 148.006 15.2582 148.307 14.5543C148.622 13.8503 149.011 13.291 149.476 12.8762C149.942 12.4488 150.432 12.1471 150.947 11.9711C151.475 11.7826 151.965 11.6883 152.418 11.6883C153.222 11.6883 153.807 11.8077 154.171 12.0465C154.548 12.2728 154.737 12.6059 154.737 13.0459C154.737 13.3224 154.674 13.5424 154.548 13.7058C154.423 13.8566 154.253 13.9321 154.039 13.9321C153.926 13.9321 153.813 13.8881 153.7 13.8001C153.599 13.6995 153.486 13.5738 153.361 13.423C153.159 13.2218 152.921 13.0207 152.644 12.8196C152.38 12.6185 152.041 12.5179 151.626 12.5179C151.098 12.5179 150.677 12.7505 150.363 13.2156C150.061 13.6806 149.91 14.4034 149.91 15.3839V16.9866C149.91 17.0746 149.935 17.1374 149.986 17.1751C150.036 17.2003 150.099 17.2128 150.174 17.2128H152.38C152.468 17.2128 152.537 17.2443 152.588 17.3071C152.638 17.3574 152.663 17.4202 152.663 17.4957C152.663 17.5962 152.65 17.7094 152.625 17.8351C152.6 17.9482 152.562 18.0425 152.512 18.1179C152.462 18.2184 152.412 18.2687 152.361 18.2687H150.476C150.25 18.2687 150.099 18.3002 150.023 18.363C149.948 18.4133 149.91 18.5076 149.91 18.6458V23.4727C149.91 23.7744 149.986 23.9944 150.136 24.1327C150.287 24.2584 150.62 24.3652 151.136 24.4532C151.4 24.5035 151.532 24.6166 151.532 24.7926C151.532 24.868 151.5 24.9309 151.437 24.9811C151.375 25.0314 151.293 25.0566 151.192 25.0566C150.815 25.0566 150.419 25.0377 150.004 25C149.59 24.9749 149.219 24.9623 148.892 24.9623C148.678 24.9623 148.477 24.9686 148.289 24.9811C148.1 24.9937 147.899 25.0063 147.685 25.0189C147.484 25.044 147.258 25.0566 147.006 25.0566Z" fill="white"/>
<path d="M158.065 25.0943C157.926 25.0943 157.819 25.0629 157.744 25C157.669 24.9497 157.631 24.8932 157.631 24.8303C157.631 24.7297 157.675 24.6543 157.763 24.604C157.851 24.5412 157.939 24.4972 158.027 24.4721C158.479 24.3589 158.813 24.2207 159.026 24.0572C159.24 23.8813 159.347 23.5984 159.347 23.2088V14.5354C159.347 14.2463 159.309 14.0263 159.234 13.8755C159.171 13.7246 159.051 13.6115 158.875 13.5361C158.712 13.4481 158.467 13.3727 158.14 13.3098C157.813 13.247 157.65 13.115 157.65 12.9139C157.65 12.8385 157.694 12.7819 157.782 12.7442C157.87 12.6939 157.97 12.6688 158.083 12.6688C158.398 12.6688 158.693 12.675 158.97 12.6876C159.259 12.7002 159.535 12.7128 159.799 12.7253C160.063 12.7379 160.327 12.7442 160.591 12.7442C160.88 12.7442 161.169 12.7379 161.459 12.7253C161.76 12.7128 162.062 12.7002 162.364 12.6876C162.678 12.675 162.979 12.6688 163.269 12.6688C163.394 12.6688 163.495 12.6939 163.57 12.7442C163.646 12.7819 163.683 12.8447 163.683 12.9327C163.683 13.0333 163.639 13.115 163.551 13.1778C163.476 13.2281 163.363 13.2721 163.212 13.3098C162.722 13.4355 162.357 13.5738 162.118 13.7246C161.892 13.8629 161.779 14.1143 161.779 14.4788V23.0956C161.779 23.4602 161.861 23.7304 162.024 23.9064C162.188 24.0698 162.496 24.1515 162.948 24.1515H165.003C165.292 24.1515 165.556 24.1012 165.795 24.0007C166.034 23.9001 166.229 23.7744 166.38 23.6236C166.606 23.4225 166.795 23.2088 166.945 22.9825C167.096 22.7562 167.241 22.4923 167.379 22.1906C167.467 22.002 167.549 21.8575 167.624 21.7569C167.7 21.6564 167.775 21.6061 167.85 21.6061C167.938 21.6061 168.001 21.6501 168.039 21.7381C168.077 21.8135 168.096 21.8952 168.096 21.9832C168.096 21.9958 168.089 22.0335 168.077 22.0963C168.064 22.1592 168.058 22.2094 168.058 22.2472C167.957 22.6117 167.869 22.9259 167.794 23.1899C167.731 23.4539 167.674 23.7116 167.624 23.963C167.586 24.2018 167.549 24.4658 167.511 24.7549C167.498 24.8429 167.473 24.9246 167.436 25C167.398 25.0629 167.322 25.0943 167.209 25.0943C166.832 25.0943 166.38 25.088 165.852 25.0754C165.324 25.0629 164.764 25.0503 164.174 25.0377C163.583 25.0377 162.986 25.0314 162.382 25.0189C161.792 25.0063 161.232 25 160.704 25C160.428 25 160.107 25.0063 159.743 25.0189C159.391 25.0314 159.058 25.044 158.743 25.0566C158.429 25.0817 158.203 25.0943 158.065 25.0943ZM168.604 25.0754C168.491 25.0754 168.39 25.0503 168.302 25C168.214 24.9623 168.17 24.9057 168.17 24.8303C168.17 24.6418 168.327 24.5161 168.642 24.4532C169.119 24.3526 169.465 24.2144 169.679 24.0384C169.892 23.8624 169.999 23.5733 169.999 23.1711V14.6108C169.999 14.196 169.911 13.9006 169.735 13.7246C169.559 13.5487 169.226 13.4104 168.736 13.3098C168.422 13.247 168.264 13.115 168.264 12.9139C168.264 12.8385 168.308 12.7819 168.396 12.7442C168.484 12.6939 168.585 12.6688 168.698 12.6688C169 12.6688 169.295 12.675 169.584 12.6876C169.873 12.7002 170.15 12.7128 170.414 12.7253C170.691 12.7379 170.967 12.7442 171.244 12.7442C171.508 12.7442 171.772 12.7379 172.036 12.7253C172.312 12.7128 172.595 12.7002 172.884 12.6876C173.173 12.675 173.468 12.6688 173.77 12.6688C173.896 12.6688 173.996 12.6939 174.072 12.7442C174.147 12.7819 174.185 12.8447 174.185 12.9327C174.185 13.0333 174.141 13.115 174.053 13.1778C173.978 13.2281 173.864 13.2721 173.714 13.3098C173.211 13.4355 172.871 13.5864 172.695 13.7624C172.519 13.9383 172.431 14.2274 172.431 14.6297V23.1522C172.431 23.5419 172.532 23.8247 172.733 24.0007C172.947 24.1767 173.293 24.3275 173.77 24.4532C173.934 24.4909 174.053 24.5349 174.128 24.5852C174.216 24.6355 174.26 24.7109 174.26 24.8114C174.26 24.8994 174.223 24.9623 174.147 25C174.072 25.0377 173.971 25.0566 173.846 25.0566C173.544 25.0566 173.242 25.0503 172.941 25.0377C172.639 25.0251 172.343 25.0126 172.054 25C171.778 24.9874 171.508 24.9811 171.244 24.9811C170.967 24.9811 170.684 24.9874 170.395 25C170.106 25.0126 169.811 25.0251 169.509 25.0377C169.207 25.0629 168.906 25.0754 168.604 25.0754ZM175.042 25.0754C174.929 25.0754 174.828 25.0503 174.74 25C174.652 24.9623 174.608 24.9057 174.608 24.8303C174.608 24.6418 174.765 24.5161 175.08 24.4532C175.557 24.3526 175.884 24.2144 176.06 24.0384C176.249 23.8624 176.343 23.567 176.343 23.1522V14.8559C176.343 14.3783 176.261 14.0263 176.098 13.8001C175.947 13.5738 175.645 13.4104 175.193 13.3098C175.017 13.2721 174.891 13.2218 174.816 13.159C174.74 13.0836 174.702 13.0081 174.702 12.9327C174.702 12.8447 174.74 12.7819 174.816 12.7442C174.904 12.6939 175.017 12.6688 175.155 12.6688C175.507 12.6688 175.846 12.675 176.173 12.6876C176.5 12.7002 176.821 12.7128 177.135 12.7253C177.449 12.7379 177.77 12.7442 178.096 12.7442C178.549 12.7442 179.039 12.7442 179.567 12.7442C180.108 12.7442 180.617 12.7442 181.094 12.7442C181.572 12.7442 181.999 12.7128 182.376 12.6499C182.766 12.5745 183.093 12.5368 183.357 12.5368C183.432 12.5368 183.514 12.5619 183.602 12.6122C183.703 12.6499 183.759 12.7253 183.772 12.8385C183.797 13.0773 183.816 13.3475 183.828 13.6492C183.841 13.9509 183.847 14.24 183.847 14.5166C183.86 14.7931 183.866 15.0131 183.866 15.1765C183.866 15.4279 183.797 15.5536 183.659 15.5536C183.596 15.5536 183.527 15.5284 183.451 15.4782C183.388 15.4279 183.344 15.3588 183.319 15.2708C183.244 14.9942 183.156 14.7491 183.055 14.5354C182.967 14.3092 182.854 14.1332 182.716 14.0075C182.552 13.8189 182.358 13.6869 182.131 13.6115C181.918 13.5361 181.666 13.4984 181.377 13.4984H179.661C179.36 13.4984 179.133 13.5864 178.983 13.7624C178.844 13.9258 178.775 14.1395 178.775 14.4034C178.775 14.6297 178.775 14.8999 178.775 15.2142C178.775 15.5284 178.775 15.8238 178.775 16.1004C178.775 16.3895 178.775 16.6975 178.775 17.0243C178.775 17.3511 178.775 17.6465 178.775 17.9105C178.775 18.0362 178.8 18.143 178.851 18.231C178.913 18.3064 179.008 18.3441 179.133 18.3441C179.473 18.3441 179.812 18.3379 180.152 18.3253C180.504 18.3127 180.812 18.3064 181.075 18.3064C181.377 18.3064 181.61 18.2184 181.773 18.0425C181.949 17.8665 182.087 17.6528 182.188 17.4014C182.238 17.3134 182.295 17.238 182.358 17.1751C182.433 17.1123 182.502 17.0809 182.565 17.0809C182.628 17.0809 182.684 17.1123 182.735 17.1751C182.798 17.238 182.823 17.3323 182.81 17.458C182.785 17.6968 182.76 17.923 182.735 18.1367C182.722 18.3379 182.716 18.5264 182.716 18.7024C182.716 18.9287 182.722 19.1298 182.735 19.3058C182.747 19.4817 182.766 19.7143 182.791 20.0034C182.804 20.1417 182.791 20.2485 182.754 20.3239C182.728 20.3994 182.678 20.4371 182.603 20.4371C182.502 20.4371 182.408 20.3868 182.32 20.2862C182.245 20.1857 182.194 20.0851 182.169 19.9845C182.069 19.6451 181.937 19.4126 181.773 19.2869C181.622 19.1612 181.446 19.0984 181.245 19.0984C181.094 19.0984 180.937 19.0984 180.774 19.0984C180.623 19.0858 180.478 19.0795 180.34 19.0795C180.152 19.0795 179.957 19.0795 179.756 19.0795C179.567 19.0795 179.379 19.0858 179.19 19.0984C179.052 19.1109 178.945 19.1549 178.869 19.2303C178.794 19.2932 178.756 19.4 178.756 19.5509C178.756 20.1291 178.756 20.7199 178.756 21.3233C178.769 21.9266 178.781 22.53 178.794 23.1333C178.807 23.523 178.913 23.8121 179.115 24.0007C179.316 24.1892 179.668 24.3401 180.17 24.4532C180.334 24.4783 180.453 24.5223 180.529 24.5852C180.604 24.6355 180.642 24.7109 180.642 24.8114C180.642 24.8994 180.604 24.9623 180.529 25C180.466 25.0377 180.365 25.0566 180.227 25.0566C179.938 25.0566 179.636 25.044 179.322 25.0189C179.02 25.0063 178.725 24.9937 178.436 24.9811C178.159 24.9686 177.902 24.9623 177.663 24.9623C177.386 24.9623 177.103 24.9686 176.814 24.9811C176.525 24.9937 176.23 25.0126 175.928 25.0377C175.639 25.0629 175.344 25.0754 175.042 25.0754ZM184.831 25.0943C184.692 25.0943 184.579 25.0691 184.491 25.0189C184.416 24.9686 184.378 24.9057 184.378 24.8303C184.378 24.6669 184.541 24.5475 184.868 24.4721C185.321 24.3589 185.641 24.2207 185.83 24.0572C186.031 23.8813 186.132 23.5859 186.132 23.1711V14.6297C186.132 14.2023 186.044 13.9006 185.868 13.7246C185.704 13.5487 185.39 13.4104 184.925 13.3098C184.749 13.2721 184.623 13.2218 184.548 13.159C184.472 13.0836 184.435 13.0081 184.435 12.9327C184.435 12.8447 184.472 12.7819 184.548 12.7442C184.636 12.6939 184.749 12.6688 184.887 12.6688C185.252 12.6688 185.597 12.675 185.924 12.6876C186.264 12.7002 186.59 12.7128 186.905 12.7253C187.219 12.7379 187.546 12.7442 187.885 12.7442C188.463 12.7442 189.073 12.7379 189.714 12.7253C190.368 12.7128 190.952 12.7065 191.468 12.7065C191.882 12.6939 192.222 12.675 192.486 12.6499C192.762 12.6248 192.926 12.6122 192.976 12.6122C193.064 12.6122 193.152 12.631 193.24 12.6688C193.341 12.7065 193.397 12.7819 193.41 12.895C193.46 13.3098 193.523 13.7184 193.598 14.1206C193.674 14.5228 193.711 14.8748 193.711 15.1765C193.711 15.2896 193.68 15.3776 193.617 15.4405C193.567 15.4907 193.51 15.5159 193.447 15.5159C193.385 15.5159 193.328 15.497 193.278 15.4593C193.227 15.409 193.183 15.3399 193.146 15.2519C193.045 14.9628 192.951 14.7114 192.863 14.4977C192.775 14.284 192.674 14.1206 192.561 14.0075C192.398 13.8315 192.209 13.6932 191.996 13.5927C191.782 13.4921 191.524 13.4418 191.222 13.4418H189.469C189.243 13.4418 189.035 13.511 188.847 13.6492C188.658 13.7749 188.564 13.9572 188.564 14.196V17.8916C188.564 18.0299 188.602 18.1367 188.677 18.2122C188.765 18.2876 188.866 18.3253 188.979 18.3253H190.713C191.053 18.3253 191.292 18.231 191.43 18.0425C191.581 17.8539 191.706 17.5962 191.807 17.2694C191.895 17.018 192.014 16.8923 192.165 16.8923C192.228 16.8923 192.285 16.93 192.335 17.0054C192.385 17.0683 192.41 17.1563 192.41 17.2694C192.398 17.3951 192.385 17.5459 192.373 17.7219C192.36 17.8979 192.348 18.0739 192.335 18.2499C192.335 18.4259 192.335 18.583 192.335 18.7212C192.335 18.8721 192.335 19.0418 192.335 19.2303C192.348 19.4189 192.354 19.6074 192.354 19.796C192.366 19.972 192.379 20.1228 192.392 20.2485C192.404 20.3868 192.392 20.4936 192.354 20.569C192.329 20.6445 192.278 20.6822 192.203 20.6822C192.002 20.6822 191.857 20.5062 191.769 20.1542C191.669 19.8023 191.549 19.5383 191.411 19.3623C191.273 19.1863 191.084 19.0984 190.845 19.0984H189.073C188.91 19.0984 188.784 19.1298 188.696 19.1926C188.608 19.2555 188.564 19.3749 188.564 19.5509V23.1333C188.564 23.5482 188.652 23.8373 188.828 24.0007C189.004 24.1641 189.274 24.2458 189.639 24.2458H191.185C191.499 24.2458 191.782 24.2144 192.033 24.1515C192.297 24.0887 192.523 23.9881 192.712 23.8498C192.926 23.699 193.114 23.4979 193.278 23.2465C193.454 22.9825 193.623 22.6934 193.787 22.3791C193.837 22.2786 193.887 22.2157 193.938 22.1906C193.988 22.1529 194.051 22.134 194.126 22.134C194.189 22.1466 194.233 22.1843 194.258 22.2472C194.296 22.31 194.315 22.3791 194.315 22.4546C194.315 22.6305 194.283 22.8568 194.22 23.1333C194.158 23.4099 194.076 23.699 193.975 24.0007C193.887 24.2898 193.806 24.56 193.73 24.8114C193.693 24.8994 193.642 24.9623 193.579 25C193.517 25.0503 193.441 25.0754 193.353 25.0754C193.051 25.0754 192.662 25.0691 192.184 25.0566C191.719 25.0566 191.21 25.0503 190.657 25.0377C190.104 25.0251 189.538 25.0126 188.96 25C188.382 25 187.829 25 187.301 25C187.037 25 186.766 25.0063 186.49 25.0189C186.226 25.0314 185.956 25.044 185.679 25.0566C185.403 25.0817 185.12 25.0943 184.831 25.0943Z" fill="white"/>
<path d="M146.592 34.6548L193.73 35.8332L146.592 37.0117V34.6548Z" fill="#997B4B"/>
<path d="M53.4941 37.0117L6.35637 35.8333L53.4941 34.6548L53.4941 37.0117Z" fill="#997B4B"/>
</svg>
